<svg xmlns="http://www.w3.org/2000/svg" xmlns:xlink="http://www.w3.org/1999/xlink" viewBox="0 0 434.41 747.72"><defs><style>.cls-1,.cls-21,.cls-27,.cls-35,.cls-9{fill:#fff;}.cls-1,.cls-41,.cls-44{opacity:0.5;}.cls-2{fill:none;}.cls-11,.cls-16,.cls-24,.cls-3{fill:#1c1f23;}.cls-14,.cls-3,.cls-35{opacity:0.15;}.cls-4{fill:url(#linear-gradient);}.cls-5{fill:url(#linear-gradient-2);}.cls-6{fill:#323938;}.cls-7{fill:#58402c;}.cls-16,.cls-23,.cls-31,.cls-43,.cls-8{opacity:0.3;}.cls-10{fill:#ff6835;}.cls-11,.cls-27,.cls-49{opacity:0.2;}.cls-12{fill:#ef5a32;}.cls-13{fill:#fcbd92;}.cls-15{fill:url(#linear-gradient-3);}.cls-17{fill:url(#linear-gradient-4);}.cls-18{fill:url(#linear-gradient-5);}.cls-19{fill:#73472c;}.cls-20{fill:#fbb040;}.cls-21{opacity:0.35;}.cls-22{fill:#40525e;}.cls-25{fill:#ff914a;}.cls-26{fill:#d6a17c;}.cls-28{fill:#443113;}.cls-29{clip-path:url(#clip-path);}.cls-30{fill:#4e474b;}.cls-31,.cls-39,.cls-44{fill:#ffe6d2;}.cls-32{clip-path:url(#clip-path-2);}.cls-33{fill:#6d6e71;}.cls-34{fill:#58595b;}.cls-36{fill:#f7941e;}.cls-37{fill:#3c3c4e;}.cls-38{fill:#babec0;}.cls-40{fill:#f15a29;}.cls-42{opacity:0.1;}.cls-43{fill:#41c3c4;}.cls-45{clip-path:url(#clip-path-3);}.cls-46{fill:#535363;}.cls-47{fill:#bcbec0;}.cls-48{fill:#d6d7d8;}</style><linearGradient id="linear-gradient" x1="480.81" y1="965.22" x2="480.81" y2="786.64" gradientUnits="userSpaceOnUse"><stop offset="0" stop-color="#323938"/><stop offset="1" stop-color="#40525e"/></linearGradient><linearGradient id="linear-gradient-2" x1="594.66" y1="965.22" x2="594.66" y2="786.64" xlink:href="#linear-gradient"/><linearGradient id="linear-gradient-3" x1="478.89" y1="786.64" x2="478.89" y2="607.25" gradientUnits="userSpaceOnUse"><stop offset="0" stop-color="#40525e"/><stop offset="1" stop-color="#323938"/></linearGradient><linearGradient id="linear-gradient-4" x1="543.02" y1="786.64" x2="543.02" y2="607.25" xlink:href="#linear-gradient-3"/><linearGradient id="linear-gradient-5" x1="507.04" y1="620.32" x2="507.04" y2="444.5" xlink:href="#linear-gradient"/><clipPath id="clip-path" transform="translate(-263.51 -222.27)"><path class="cls-1" d="M466,298.75a16.94,16.94,0,0,1,.4,8.37c-2.05.71-5.43.58-8.86.18,0-6.89.12-7.49.12-7.49a6.69,6.69,0,0,1,4.49-1.61A14.82,14.82,0,0,1,466,298.75Z"/></clipPath><clipPath id="clip-path-2" transform="translate(-263.51 -222.27)"><path class="cls-1" d="M485.86,298.75a17.09,17.09,0,0,0-.41,8.37c2.06.71,7.59.58,11,.18,0-6.89-1.66-8.27-1.66-8.27a13.86,13.86,0,0,0-5.49-1.51C486.67,297.52,485.86,298.75,485.86,298.75Z"/></clipPath><clipPath id="clip-path-3" transform="translate(-263.51 -222.27)"><path class="cls-2" d="M507.6,549.85l41.54,70.46L564,627.44A19.11,19.11,0,0,0,576.58,615l2.77-1.27,12.93-63.91Z"/></clipPath></defs><title>37691 [Converted]</title><g id="Work"><path class="cls-3" d="M556.45,965.22c0,2.63-31.73,4.76-70.87,4.76s-70.88-2.13-70.88-4.76,31.73-4.77,70.88-4.77S556.45,962.59,556.45,965.22Z" transform="translate(-263.51 -222.27)"/><path class="cls-3" d="M697.92,965.22c0,2.63-27.49,4.76-61.4,4.76s-61.4-2.13-61.4-4.76,27.49-4.77,61.4-4.77S697.92,962.59,697.92,965.22Z" transform="translate(-263.51 -222.27)"/><ellipse class="cls-3" cx="363.34" cy="742.95" rx="36.92" ry="2.87"/><ellipse class="cls-3" cx="209.04" cy="742.95" rx="45.23" ry="2.87"/><path class="cls-4" d="M468,965.22c0-52.36.95-128.52-5.59-178.58h27.06s9.78,30.44,9.78,52.76S477.86,910,477.86,965.22Z" transform="translate(-263.51 -222.27)"/><path class="cls-5" d="M616.44,965.22C602.41,912.86,583,836.7,563,786.64h27.06S608,817.08,614,839.4,611.53,910,626.32,965.22Z" transform="translate(-263.51 -222.27)"/><path class="cls-6" d="M573.4,515.93c2.41-5.88-11-24.35-49.92-27.59s-86.13,10.07-82.8,25.77,33.49,18.34,59.06,18.3S563.66,539.68,573.4,515.93Z" transform="translate(-263.51 -222.27)"/><path class="cls-7" d="M450.23,611.79c.69-8.41,25.65-10.08,56.13-7.55s53.8,8.26,54.22,16.7l.44-13.22c.7-8.41-23.87-14.18-54.48-16.72s-55.69-.88-56.39,7.54Z" transform="translate(-263.51 -222.27)"/><g class="cls-8"><path class="cls-9" d="M452.55,598.26c.58-7,24.54-8,53.85-5.62s52.88,7.47,52.3,14.41l2.32.67c.7-8.41-23.87-14.18-54.48-16.72s-55.69-.88-56.39,7.54Z" transform="translate(-263.51 -222.27)"/></g><path class="cls-10" d="M442.75,387.28c-31.88,0-77.81,110-77.81,110l43.4,16.87s19.88-35.92,34.41-35.92C467,478.19,470.51,387.28,442.75,387.28Z" transform="translate(-263.51 -222.27)"/><path class="cls-11" d="M428.39,454.92c-3.23,16.24-19.16,35.9-19.16,35.9s4.57,11.89.7,15.86a37.88,37.88,0,0,1-6.05,5.33l-5.8-.67c-.12,8-2.12,14.81-5.66,17.31,3.42,4.94,8.29,2.57,10.52,0s3-5,6-6.63c1.74-.95,4.45-7.32,4.18-15.77,6.78-10.58,19.52-28.06,29.66-28.06a9.81,9.81,0,0,0,5.23-1.54C443.64,462.5,433,431.82,428.39,454.92Z" transform="translate(-263.51 -222.27)"/><circle class="cls-12" cx="386.64" cy="505.67" r="23.28" transform="translate(-513.23 299.03) rotate(-54)"/><circle class="cls-13" cx="386.64" cy="505.67" r="23.28" transform="translate(-470.8 512.42) rotate(-73.68)"/><path class="cls-13" d="M374.32,525.42c26.17,16.33,51.55-22.71,24.64-39.5-20.95-13.07-70.19-43.24-70.19-43.24L322.32,453S351.54,511.21,374.32,525.42Z" transform="translate(-263.51 -222.27)"/><path class="cls-14" d="M399,485.92c-5.67-3.53-13.42-8.33-21.7-13.44,2.35,2.8,5,5.3,7.13,8.3,3.77,5.35,6.32,13,2.95,19.18a11.7,11.7,0,0,1-2,2.69,11,11,0,0,1-9.14,3.27,17.28,17.28,0,0,1-4.42-1.42c-14.19-6.26-25.06-20-34.83-31.7a126.78,126.78,0,0,0-8.61-9.62c-.38-.38-.79-.74-1.21-1.1,9.22,16.94,30,52.63,47.21,63.34C400.49,541.75,425.87,502.71,399,485.92Z" transform="translate(-263.51 -222.27)"/><path class="cls-15" d="M508.39,653.52V607.25H453.65s-14,40.86,8.74,179.39h27.06S485.8,653.52,508.39,653.52Z" transform="translate(-263.51 -222.27)"/><path class="cls-16" d="M482.74,789.48c.35.23.7.48,1,.72l.14-.05,1.24-.62c.07.64.16,1.27.26,1.89.62.49,1.22,1,1.8,1.52a35.1,35.1,0,0,1-.63-4.6.79.79,0,0,0-1.17-.68l-1.13.56c-.37-25.06.11-50.14,1.66-75.16.78-12.55,1.85-25.07,3.11-37.57.11-1,.29-2.07.45-3.11a5.09,5.09,0,0,0,.1-1.56c-.08-.6-.28-1.17-.3-1.77a5.05,5.05,0,0,1,.2-1.34,14.73,14.73,0,0,1,1.31-3.31,7.58,7.58,0,0,0,.66-1.34,7.47,7.47,0,0,0,0-2.79,16.12,16.12,0,0,1,0-2.6,5.46,5.46,0,0,1-.57,1.29,7.6,7.6,0,0,0-.09,2.82,9.28,9.28,0,0,1-.53,2.53,25.57,25.57,0,0,1-1.6,4.28,3.61,3.61,0,0,0-.42,1,4,4,0,0,0,0,.91,18.38,18.38,0,0,1-.41,4.11c-.18,1.55-.35,3.11-.51,4.67-.32,3.11-.6,6.23-.9,9.35q-1.57,16.76-2.53,33.55Q482.07,755.82,482.74,789.48Z" transform="translate(-263.51 -222.27)"/><path class="cls-16" d="M483.53,656s8.77-.51,11.18,1.21-10,11.69-11.18,14.45,5.79-1.21,6.51,1.2.63,43.49.63,43.49h0c2.05-32,6.84-62.84,17.72-62.84C496.43,651,483.53,656,483.53,656Z" transform="translate(-263.51 -222.27)"/><path class="cls-17" d="M508.39,653.52,496,607.25h54.74s24.94,40.86,39.33,179.39H563S531,653.52,508.39,653.52Z" transform="translate(-263.51 -222.27)"/><path class="cls-16" d="M594.53,796.29c-1.7-2.45-3.51-4.74-5.37-7.07-2.56-3.18-3.12-6-3.61-10-.78-6.31-1.83-12.52-2.88-18.78-2.27-13.63-4.66-27.22-7.49-40.75-4.09-19.58-9.15-38.8-14.57-58,5.32,19.56,9.7,39.47,13.62,59.25,2.74,13.83,5.32,27.76,7.18,41.74q1.3,9.84,2.64,19.69c.42,3,.21,3.69,2.06,5.76,2.6,2.89,5.2,5.76,8,8.44C594.33,796.79,594.7,796.54,594.53,796.29Z" transform="translate(-263.51 -222.27)"/><path class="cls-16" d="M554.1,639.54c.74,2.33,1.45,4.69,2.16,7-.69-2.35-1.37-4.71-2.07-7.07C554.18,639.44,554.08,639.47,554.1,639.54Z" transform="translate(-263.51 -222.27)"/><path class="cls-16" d="M560.61,661.72q-2.07-7.61-4.35-15.14Q558.47,654.16,560.61,661.72Z" transform="translate(-263.51 -222.27)"/><path class="cls-10" d="M453.65,607.25c0-66.56-6.84-103.9-20.64-129.06-9.74-31.25-7.71-90.91,9.74-90.91h65.64v220Z" transform="translate(-263.51 -222.27)"/><path class="cls-10" d="M550.73,607.25c-13.86-62.09,23.07-103.9,36.87-129.06,9.74-31.25,17.46-90.91,0-90.91H496v220Z" transform="translate(-263.51 -222.27)"/><path class="cls-11" d="M485.67,387.28H474.08c-5.81,2.21-11.83,7-14.39,13.64a196.77,196.77,0,0,0-12.95,75.4c.49,21.11-2.85,22.59-5.73,20.12,8.45,24.48,12.64,58.68,12.64,110.81h97.08c-13.86-62.09,23.07-103.9,36.87-129.06,6.85-22,12.68-58,9.49-77.42-11.09-1.77-21.56,2.42-28.25,18.71-8.36,20.35-2.51,31.77.21,47.07s-11.62,41.89-21,39.25-20.12-15.1-19.51-45,24.56-71.29,41.6-73.52H556.33a48.84,48.84,0,0,0-23.76,20.39c-10.11,17.56-20.65,35.63-46.83,35.63s-23.8-.32-22.56-19.14S475.47,389.31,485.67,387.28Z" transform="translate(-263.51 -222.27)"/><path class="cls-13" d="M542,391.61c0,4.18-20.7,9.57-37.2,9.57s-22.54-5.39-22.54-9.57,16.84-4.33,33.33-4.33S542,387.42,542,391.61Z" transform="translate(-263.51 -222.27)"/><path class="cls-14" d="M576.65,387.28c-31.55,17.93-71.56,20.56-86.92,20.56S459,387.28,459,387.28Z" transform="translate(-263.51 -222.27)"/><path class="cls-18" d="M553,611.68c-5,6.93-33,10.79-60.4,7.37s-38.45-10.66-39-11.8c0-18.38-10.13-82.53-13-93.14,8.55,0,4.17-42.33,4.41-64.13,0-2,.17-3.83.28-5.45,28.95,9.34,81.76,0,81.76,0-15.42,55.06,21.31,83.81,46.27,71.43C573.4,515.93,553,558.55,553,611.68Z" transform="translate(-263.51 -222.27)"/><path class="cls-16" d="M553,611.68c0-53.13,20.4-95.75,20.4-95.75a27.53,27.53,0,0,1-15.63,2.62v0l1.38,2.23s-15.37,37.72-15.3,77.24c-.76,7.05-19.29,12.33-42.76,11.48-18.62-.67-39-.64-47.89-11.27.29,3.6.45,6.67.45,9,.5,1.14,11.53,8.37,39,11.8S548,618.61,553,611.68Z" transform="translate(-263.51 -222.27)"/><path class="cls-16" d="M451.66,615.85c1.33,18.19,72.18,30.91,97.23,27.39,15.5-2.18,11.14-15.83,6.5-26.16a28.86,28.86,0,0,1-2.25-13s-1.93,5.4-39.67,5.62-58.43-7.17-59.85-10.91C451.74,605.12,451.66,615.85,451.66,615.85Z" transform="translate(-263.51 -222.27)"/><path class="cls-10" d="M587.6,387.28c31.88,0,77.81,110,77.81,110L622,514.11s-19.89-35.92-34.42-35.92C563.41,478.19,559.85,387.28,587.6,387.28Z" transform="translate(-263.51 -222.27)"/><circle class="cls-12" cx="643.72" cy="505.67" r="23.28" transform="translate(-438.3 272.29) rotate(-37.37)"/><circle class="cls-13" cx="380.2" cy="283.41" r="23.28"/><path class="cls-13" d="M667,505.67c0-30.84-46.55-31.72-46.55,0,0,24.69.67,111.82.67,111.82h12.18S667,532.53,667,505.67Z" transform="translate(-263.51 -222.27)"/><path class="cls-14" d="M647.74,567.57c-3.14,10.25-6.91,20.3-9.59,30.68-1.28,5-2.31,10-3.23,15.07C641.65,596,667,529,667,505.67c0-30.84-46.55-31.72-46.55,0,0,3.73,0,8.89,0,14.95a36.91,36.91,0,0,1,4-12.36c3.83-6.67,11.74-11.66,19.15-9.59,5.28,1.47,9.18,6.22,10.94,11.41s1.7,10.81,1.31,16.28A187.19,187.19,0,0,1,647.74,567.57Z" transform="translate(-263.51 -222.27)"/><path class="cls-19" d="M558.7,607.05c-.58,7-24.8,10.61-54.12,8.18s-52.61-10-52-17l-2.4.28.08,13.25c-.7,8.42,23.44,18.78,53.91,21.3S561,630,560.58,620.94l.44-13.22Z" transform="translate(-263.51 -222.27)"/><g class="cls-8"><path class="cls-9" d="M450.15,598.54c-.69,8.41,23.56,17.29,54.17,19.82s56-2.22,56.7-10.64l-2.32-.67c-.58,7-24.8,10.61-54.12,8.18s-52.61-10-52-17Z" transform="translate(-263.51 -222.27)"/></g><polygon class="cls-20" points="244.09 394.82 217 390.67 214.61 391.38 213.83 409.07 240.52 414.01 243.46 411.04 244.09 394.82"/><path class="cls-16" d="M494,634.41c0-.36.65-18.06.65-18.06l2-1-6.44-1-2.36.81-.58,17.94Z" transform="translate(-263.51 -222.27)"/><polygon class="cls-16" points="241.15 395.73 244.09 394.82 243.46 411.04 240.52 414.01 241.15 395.73"/><polygon class="cls-21" points="241.15 395.73 214.61 391.38 217 390.67 244.09 394.82 241.15 395.73"/><path class="cls-22" d="M527.13,444.5c12.18-35.31,28.82-57.22,43-57.22h4.06S574,383,567.8,383H553.71c-5.58,0-32.18,20.59-43.88,66.86h15.94Z" transform="translate(-263.51 -222.27)"/><path class="cls-22" d="M458,444.5c2.71-35.31,13.48-57.22,27.68-57.22h4.06s-1.39-4.26-7.55-4.26H468.09c-5.58,0-21.37,24.48-23,66.86h13Z" transform="translate(-263.51 -222.27)"/><g class="cls-8"><path d="M574.21,387.28h-2.09a21,21,0,0,0-5.84.53,23.87,23.87,0,0,0-8.1,4.16,49.88,49.88,0,0,0-8.44,8.32,92.69,92.69,0,0,0-8,11.56,149.65,149.65,0,0,0-7.22,13.92c-2.25,5-4.36,10.17-6.3,15.54l-.72,2a18,18,0,0,0-.64,2.05c-.35,1.39-.71,2.79-1.06,4.19l-.87,4.26c-.28,1.42-.45,2.86-.68,4.3a80.62,80.62,0,0,0-.56,17.27,60.25,60.25,0,0,0,3.55,16.34,49.14,49.14,0,0,0,7.7,13.58,39.73,39.73,0,0,0,10.62,9.1,31.71,31.71,0,0,0,11.12,4,28.14,28.14,0,0,0,9.11,0,28.5,28.5,0,0,0,5.66-1.61l1.91-.84-1.84,1A26.05,26.05,0,0,1,566,519.1a29.45,29.45,0,0,1-9.46.73,31.85,31.85,0,0,1-12-3.43,40.64,40.64,0,0,1-11.85-9.12,50.33,50.33,0,0,1-8.88-14.2c-.56-1.35-1-2.73-1.55-4.12s-.89-2.84-1.24-4.29a61.39,61.39,0,0,1-1.59-8.9,85.48,85.48,0,0,1,.11-18.3c.22-1.51.37-3,.65-4.54s.57-3.06.86-4.59l1-4.21.12-.52.07-.26v-.07l.14-.47,0-.13.35-1.05.7-2.08c1.86-5.53,4-10.88,6.34-16,1.16-2.55,2.35-5,3.59-7.45s2.6-4.7,4-6.92a97.36,97.36,0,0,1,8.66-12,54.54,54.54,0,0,1,9.6-8.72,28.45,28.45,0,0,1,9.71-4.5,20.63,20.63,0,0,1,2.29-.38c.38,0,.79-.08,1.12-.09a6.29,6.29,0,0,1,.77.07l.37.07.09,0h.26l.17.06a6.58,6.58,0,0,1,.66.29,7.64,7.64,0,0,1,1.13.75A9.54,9.54,0,0,1,574.21,387.28Z" transform="translate(-263.51 -222.27)"/></g><path class="cls-23" d="M458.07,449.88l-.48-2.68-.39-2.68v-.08c-.07-1.52-.16-3.05-.2-4.58s0-3.05,0-4.58.11-3.06.2-4.59.19-3.07.36-4.6.35-3.06.58-4.59.48-3.06.77-4.58.64-3.05,1-4.57.8-3,1.27-4.55,1-3,1.56-4.51c.29-.74.6-1.49.92-2.23s.69-1.47,1-2.2a47.8,47.8,0,0,1,2.46-4.32,32,32,0,0,1,3.14-4,28.08,28.08,0,0,1,4.06-3.5,20.51,20.51,0,0,1,5.05-2.44,15.62,15.62,0,0,1,5.67-.73,3.64,3.64,0,0,1,1.24.3,6.06,6.06,0,0,1,1.13.63,8,8,0,0,1,2.26,2.52c-1.5,0-3,0-4.52,0a13,13,0,0,0-4.4.89,17.46,17.46,0,0,0-3.95,2.17,26,26,0,0,0-3.33,3.05,32,32,0,0,0-2.76,3.57c-.85,1.24-1.6,2.55-2.33,3.86s-1.36,2.69-2,4.08-1.15,2.78-1.66,4.19-1,2.85-1.43,4.29-.84,2.89-1.22,4.35-.72,2.93-1,4.4-.61,3-.89,4.43A177.23,177.23,0,0,0,458,444.5h0Z" transform="translate(-263.51 -222.27)"/><path class="cls-20" d="M524.64,435.59a3.76,3.76,0,0,0-3.15-2.44l-7-.66a3.8,3.8,0,0,0-4,2.75l-2,6.81a4,4,0,0,0,1.38,4.27,3.77,3.77,0,0,0,3.09,2.42l6.94.77a3.81,3.81,0,0,0,4-2.77l2-6.9A4,4,0,0,0,524.64,435.59Zm-12.39,7.11,1.31-4.42a2.48,2.48,0,0,1,2.58-1.79l4.52.43a2.27,2.27,0,0,1,.87.27,2.61,2.61,0,0,1,0,1.3L520.18,443a2.46,2.46,0,0,1-2.61,1.8l-4.52-.5a2.14,2.14,0,0,1-.83-.27A2.54,2.54,0,0,1,512.25,442.7Z" transform="translate(-263.51 -222.27)"/><g class="cls-8"><path class="cls-24" d="M512.22,444a2.54,2.54,0,0,1,0-1.31l1.31-4.42a2.48,2.48,0,0,1,2.58-1.79l4.52.43a2.27,2.27,0,0,1,.87.27,2.48,2.48,0,0,0-2.15-2l-4.52-.43a2.47,2.47,0,0,0-2.58,1.8L511,441A2.55,2.55,0,0,0,512.22,444Z" transform="translate(-263.51 -222.27)"/><path class="cls-24" d="M524.64,435.59a4,4,0,0,1,.1,2.56l-2,6.91a3.8,3.8,0,0,1-4,2.76l-6.94-.76a3.66,3.66,0,0,1-1.81-.74,3.77,3.77,0,0,0,3.09,2.42l6.94.77a3.81,3.81,0,0,0,4-2.77l2-6.9A4,4,0,0,0,524.64,435.59Z" transform="translate(-263.51 -222.27)"/></g><path class="cls-20" d="M456.42,435a3.75,3.75,0,0,0-3.59-1.73l-6.93.79a3.81,3.81,0,0,0-3.31,3.52l-.56,7.08a4,4,0,0,0,2.24,3.89,3.78,3.78,0,0,0,3.53,1.73l6.95-.7a3.79,3.79,0,0,0,3.36-3.54l.54-7.17A3.93,3.93,0,0,0,456.42,435Zm-10.64,9.53.37-4.6a2.47,2.47,0,0,1,2.15-2.29l4.51-.52a.93.93,0,0,1,1.14,1.37l-.35,4.66a2.45,2.45,0,0,1-2.19,2.3l-4.52.46a2.31,2.31,0,0,1-.87-.09A2.64,2.64,0,0,1,445.78,444.56Z" transform="translate(-263.51 -222.27)"/><g class="cls-8"><path class="cls-24" d="M446,445.85a2.64,2.64,0,0,1-.24-1.29l.37-4.6a2.47,2.47,0,0,1,2.15-2.29l4.51-.52a2.47,2.47,0,0,1,.9.09,2.47,2.47,0,0,0-2.51-1.47l-4.5.52a2.47,2.47,0,0,0-2.15,2.29l-.37,4.6A2.55,2.55,0,0,0,446,445.85Z" transform="translate(-263.51 -222.27)"/><path class="cls-24" d="M456.42,435a4,4,0,0,1,.63,2.49l-.54,7.17a3.79,3.79,0,0,1-3.36,3.54l-6.95.7a3.7,3.7,0,0,1-1.93-.35,3.78,3.78,0,0,0,3.53,1.73l6.95-.7a3.79,3.79,0,0,0,3.36-3.54l.54-7.17A3.93,3.93,0,0,0,456.42,435Z" transform="translate(-263.51 -222.27)"/></g><path class="cls-22" d="M514.53,459.1s-31.2,4.76-62.58,0c0,0-3.84,42.16,2.36,49.45s54,4.12,61.31,0C515.66,488,514.53,459.1,514.53,459.1Z" transform="translate(-263.51 -222.27)"/><path class="cls-16" d="M514.53,459.1s-1.55.24-4.31.55h0s1.47,37.33-16,42.56-42.4,8.88-43.47-14.89c.13,9.39,1,18.24,3.52,21.23,6.19,7.29,54,4.12,61.31,0C515.66,488,514.53,459.1,514.53,459.1Z" transform="translate(-263.51 -222.27)"/><path class="cls-25" d="M620.41,511.34c0-14.23,34.75-25.88,45-14.07,3.5-4.16,1.61-7-.69-9.39-.8-4.25,0-12.36-11.48-13.6s-34.1,5.78-40.61,22.14c-1.91,6.35-.69,9.33,1.2,10C614.37,510.76,620.41,511.34,620.41,511.34Z" transform="translate(-263.51 -222.27)"/><path class="cls-11" d="M620.43,511.37l-.09-.62-.1-.75c0-.3,0-.65,0-1.06a11.77,11.77,0,0,1,.58-2.86,15.76,15.76,0,0,1,1.62-3.48,27.16,27.16,0,0,1,2.79-3.57,36,36,0,0,1,3.68-3.45,47,47,0,0,1,4.46-3,50.21,50.21,0,0,1,4.94-2.59,30.64,30.64,0,0,1,5.3-2,23.69,23.69,0,0,1,2.75-.5c.92-.11,1.83-.22,2.74-.24,1.82-.1,3.61-.09,5.34-.07s3.52-.48,5.23-.28a6.14,6.14,0,0,1,1.22.25,7.08,7.08,0,0,1,1.11.53,7.89,7.89,0,0,1,1.8,1.55,7.69,7.69,0,0,1,1.24,1.85c.16.31.29.63.41.93a9.88,9.88,0,0,1,.26,1,7.5,7.5,0,0,1,0,3.06,8.29,8.29,0,0,1-.34,1.18l-.43-.43-.52-.53c-.2-.2-.48-.38-.77-.62l-.47-.36-.55-.33a9.4,9.4,0,0,0-1.27-.69,11.76,11.76,0,0,0-1.52-.64l-.85-.29-.9-.23a24.4,24.4,0,0,0-4.07-.65,32,32,0,0,0-4.59,0,40.11,40.11,0,0,0-4.87.63,47.86,47.86,0,0,0-4.92,1.24,44.53,44.53,0,0,0-9.15,4,31.87,31.87,0,0,0-3.79,2.59,23.33,23.33,0,0,0-3,2.81,15.9,15.9,0,0,0-2,2.84,11,11,0,0,0-1,2.49c-.08.36-.15.69-.22,1s0,.53,0,.73Z" transform="translate(-263.51 -222.27)"/><path class="cls-26" d="M536.86,391.18c0,3.78-16.64,8.63-29.9,8.63s-18.13-4.85-18.13-8.63,13.54-3.9,26.8-3.9S536.86,387.41,536.86,391.18Z" transform="translate(-263.51 -222.27)"/><path class="cls-26" d="M536.86,334.77c0,3.77-16.64,8.63-29.9,8.63s-18.13-4.86-18.13-8.63,13.54-3.9,26.8-3.9S536.86,331,536.86,334.77Z" transform="translate(-263.51 -222.27)"/><path class="cls-26" d="M536.86,391.18a209.67,209.67,0,0,1,0-56.41h-48s4.73,35.77,0,56.41Z" transform="translate(-263.51 -222.27)"/><path class="cls-25" d="M376.45,472s13.91,7.83,18.78,21.43,3.31,30.91-2.81,35.24c3.42,4.94,8.29,2.57,10.52,0s3-5,6-6.63,8.71-18.83-2.05-35.37S380.18,465.41,378.45,466,376.45,472,376.45,472Z" transform="translate(-263.51 -222.27)"/><path class="cls-11" d="M376.45,472l.76.18a20.55,20.55,0,0,1,2.13.63,31.75,31.75,0,0,1,3.19,1.3,36.28,36.28,0,0,1,4,2.15l1.08.67,1.07.78c.74.52,1.46,1.1,2.21,1.72a36.5,36.5,0,0,1,4.36,4.35,31.84,31.84,0,0,1,2,2.65c.59,1,1.25,1.93,1.79,3l.81,1.59.21.41.1.2,0,.05.07.19,0,.09.29.72.57,1.44c.19.47.38,1.12.56,1.67l.55,1.73.45,1.66a32.27,32.27,0,0,1,.69,3.33,40.26,40.26,0,0,1,.56,6.59c0,1.08,0,2.14-.13,3.17s-.23,2.06-.38,3a37.78,37.78,0,0,1-1.42,5.55c-.33.85-.57,1.65-.95,2.44a10.52,10.52,0,0,1-1.17,2.14,8.75,8.75,0,0,1-3.25,2.8,6.22,6.22,0,0,1-3.05.65,4.51,4.51,0,0,1-.86-.12,2.44,2.44,0,0,1-.3-.08l.56-.49a5,5,0,0,0,.64-.61l.75-.94a15.09,15.09,0,0,0,1.53-2.87,24.18,24.18,0,0,0,1.25-4,40,40,0,0,0,.77-4.94c.08-.88.1-1.79.16-2.72s0-1.88,0-2.85a55.71,55.71,0,0,0-.49-5.94c-.15-1-.28-2-.51-3l-.31-1.52-.38-1.49a38.46,38.46,0,0,0-2-5.83c-.38-.94-.89-1.81-1.33-2.71s-1-1.7-1.53-2.51a41.4,41.4,0,0,0-3.41-4.41c-.58-.67-1.16-1.31-1.75-1.9s-1.16-1.16-1.73-1.68c-1.13-1.06-2.22-2-3.21-2.75s-1.87-1.42-2.61-1.93C377.35,472.49,376.45,472,376.45,472Z" transform="translate(-263.51 -222.27)"/><path class="cls-16" d="M544.28,620.14l-1.47,10.5-3.57,1.57,12.44,41a7.11,7.11,0,0,0,6.25,5c4.56.38,11-.5,13.64-7.58a487,487,0,0,0-14-51.95S549.76,622,544.28,620.14Z" transform="translate(-263.51 -222.27)"/><path class="cls-19" d="M544.28,620.14,554.84,672l9.71,1.69s14.8-8.48,14.8-23.72v-36.2L561,609.82S555.32,619.67,544.28,620.14Z" transform="translate(-263.51 -222.27)"/><polygon class="cls-16" points="280.77 397.87 300.86 406.8 301.04 451.41 291.33 449.73 280.77 397.87"/><path class="cls-27" d="M579.35,613.76,561,609.82s-5.63,9.85-16.67,10.32c0,0,13.49,6.42,20.09,8.93C574.38,626.23,579.35,613.76,579.35,613.76Z" transform="translate(-263.51 -222.27)"/><path class="cls-28" d="M576.58,615l-14.75-3.38s-4.91,7.3-12.69,8.66L564,627.44A19.13,19.13,0,0,0,576.58,615Z" transform="translate(-263.51 -222.27)"/><path class="cls-13" d="M528,332.5c17.38-7.45,17.71-12.23,22.46-24.12s7.6-24.63-.56-38.89-24.84-22.37-39.14-22.37-39.37,8.28-45,14.77-12.66,73.78,17.79,73.78S521.75,335.18,528,332.5Z" transform="translate(-263.51 -222.27)"/><path class="cls-13" d="M540,326c-2.48,7.85-3.28,22.68-3.28,38.55,0,22.49,2.75,24.07,2.07,26S520.05,399,501.47,399C493.14,399,490,392.5,490,388.8s-.18-29.29-4.52-41.9,14.76-21.79,26.19-23.52S543.53,314.76,540,326Z" transform="translate(-263.51 -222.27)"/><path class="cls-14" d="M520.35,384.32c5.38-8.12,13-21.16,16.5-30.74.32-11.51,1.24-21.6,3.13-27.6,3.55-11.22-16.85-4.33-28.28-2.6s-30.53,10.91-26.19,23.52S490,385.1,490,388.8,493.14,399,501.47,399c1.15,0,2.31,0,3.45-.07C510.94,396,516.71,389.84,520.35,384.32Z" transform="translate(-263.51 -222.27)"/><path class="cls-13" d="M478,364.25c12.55,0,13.55.07,24.65-5.46s20.74-8.3,23.19-15.54,6.57-33.66,6.57-33.66,8.39-16.32-.89-31.48-38.62-28.64-65.82-16.22c-10.56,9.85-10.88,32.69-10.88,32.69s2.38,10.55.74,16-2.14,7.21.63,22.36,6.24,26.44,10.85,28.73S478,364.25,478,364.25Z" transform="translate(-263.51 -222.27)"/><path class="cls-1" d="M466,298.75a16.94,16.94,0,0,1,.4,8.37c-2.05.71-5.43.58-8.86.18,0-6.89.12-7.49.12-7.49a6.69,6.69,0,0,1,4.49-1.61A14.82,14.82,0,0,1,466,298.75Z" transform="translate(-263.51 -222.27)"/><g class="cls-29"><path class="cls-1" d="M457.72,302.62c-.43,4.07,2,4.79,4.38,4.5,2.74-.34,3.95-.73,4.2-4.5.23-3.46-1.94-4.24-4.29-3.91C459.44,299.08,458,300.32,457.72,302.62Z" transform="translate(-263.51 -222.27)"/><circle class="cls-30" cx="200.42" cy="80.71" r="3.12"/></g><path class="cls-1" d="M462.18,300.28a1.25,1.25,0,1,0,1.25-1.25A1.25,1.25,0,0,0,462.18,300.28Z" transform="translate(-263.51 -222.27)"/><path class="cls-23" d="M467,305.67c-.14.71.22,2.3-4,2.63s-6-1-6-1l.43,0S465.05,308.3,467,305.67Z" transform="translate(-263.51 -222.27)"/><path class="cls-30" d="M466,298.75a3.9,3.9,0,0,1-2.42-2.17c-2.55.48-4.78,1.16-5.92,3.23C459.89,298.32,462.65,298,466,298.75Z" transform="translate(-263.51 -222.27)"/><path class="cls-14" d="M513.23,295.43c2.77,4,5.34,4.55,3.74,12.39s-11.54,8.74-15.2,13.05,1.05,3.64-.19,6.61-10.1-6.69-13.43-7.24-4.62-2.51-6.21-3.79-6.59,4.14-14.61,3.46-9.6,2.29-12.17,6.62.87,22.74,18.7,22.74,43.59-.39,51.47-20.29,12.24-32.88,4.93-45.46-15.82-26.83-30.78-25.19S463,268,459.71,275.78c-.92,2.89,10.38,1.81,15.16.66-1.18,1.53,6.13,1.82,10.52.15s5.68-10.18,15.15-9.58c-2.36.87-3.29,1.65-3.92,2.73,3.13,0,6.74,1.38,7.74,2.76-4.15.05-4.54,1.93-4.23,2.57s6,2.35,7,6.68S506.67,286,513.23,295.43Z" transform="translate(-263.51 -222.27)"/><path class="cls-19" d="M476.57,277.25a36.87,36.87,0,0,0,2.05,11c5.2-1.39,8.68-5,21.18,1.95,3.39-3.18.57-9.5.57-9.5s-11.35-3.79-15.9-4.81A10.48,10.48,0,0,0,476.57,277.25Z" transform="translate(-263.51 -222.27)"/><path class="cls-19" d="M464.81,282.17c-1.5,4.74,1.25,8.24,1.76,10.09,0,0-7.88-2-11.54,3.17a4.65,4.65,0,0,1-2.86-1.35,19.45,19.45,0,0,1-.38-5.94c1.85-3.4,7.88-7.8,9-7.8S464.81,282.17,464.81,282.17Z" transform="translate(-263.51 -222.27)"/><path class="cls-13" d="M482.8,321.47c-.32,2.24-4.73,1.89-9.35,3.12s-6.22,2.19-8.74,0-5.53-3.32-3.85-6.78,6.56-17,6.78-19.52a17.36,17.36,0,0,0-1.07-6s3.14,3.2,12.05-.93c-1.25,7.53,2.14,8.74,2.14,8.74l-1.54,14.08S483.65,315.6,482.8,321.47Z" transform="translate(-263.51 -222.27)"/><path class="cls-23" d="M464.71,324.57c2.52,2.21,4.13,1.25,8.74,0s9-.88,9.35-3.12c.56-3.85-1.15-5.79-2.4-6.67h0c.94,1.64,1.85,5.11-.42,5.34s-5.84-.32-9.09.13-7.51,1.44-9.34,0c-1.05-.85-.64-1.74-.72-2.39C459.22,321.26,462.2,322.38,464.71,324.57Z" transform="translate(-263.51 -222.27)"/><path class="cls-27" d="M468.8,294.91a5.55,5.55,0,0,0,.12,2.47,1.33,1.33,0,0,0-1.28.89c-.22,2.48-5,15.83-6.74,19.42,0,2.6,1.69,2.76,3.47,2.66,2.58-.16,1.69-2.92,2.4-5.88.65-2.72,2.14-5.21,3.15-10.62s2-5.25,3.44-6.34C471.32,297.56,469.51,297.23,468.8,294.91Z" transform="translate(-263.51 -222.27)"/><path class="cls-27" d="M468.94,301.52c-.41,2.28-.57,8.08-3.7,11.4,2.67-1,3.7-4.18,3.77-6.67S468.94,301.52,468.94,301.52Z" transform="translate(-263.51 -222.27)"/><path class="cls-19" d="M467.48,324.91c5.27,0,17.35-4.49,20.56-3.81s13.85,11.45,13.85,11.45l15.36-7.64,4.35-28.17-7.19-12.42s.75-6.09-13.44-9.57c.86-1.79,7.84.5,7.84.5a12.63,12.63,0,0,0-11.2-6.21c1.11-1.9,8.63-.84,8.63-.84s-8-5.15-15.52,1-13.27,6.8-17.4,5.34c2.44-1,6.33-3.54,7.74-6.27-4.42,3.65-19.08,9.19-28.31,7.3s-10.34-8.81-9.38-10.7,4.29-1.16,5.91,1.2c0,0-.49-5.23,5.35-4.41s4.73,1.8,12.43-3.14,27.67-17.09,49.35-15.39c35.77,2.81,31.69,16.32,36.15,23.64s10.24,19,6.48,27.48-6,21-9.78,26.49-7.67,9.69-7.8,14.73c-.67,2.33-3.72,3.06-3.72,3.06s-4-10.12-7.29-12.6c0,6.71,4.76,21.18,4.76,21.18l-7.52,8-33.58,18-34.67-2.54L452.75,364l2.62-10-3.59-4.4L449.92,338l1.18-9.17s7.88-7,9.46-7S464.21,324.91,467.48,324.91Z" transform="translate(-263.51 -222.27)"/><polygon class="cls-31" points="258.09 74.47 260.57 79.88 257.02 106.47 255.7 104.34 238.38 110.28 253.74 102.64 258.09 74.47"/><polygon class="cls-31" points="202.53 122.87 196.57 138.44 205.78 122.82 202.53 122.87"/><path class="cls-13" d="M532.34,319.59c6.24,0,8.81-3.73,12.18-12.95s0-11.67-3-13.56-7.74,2-7.74,2l-3,23.86A1.62,1.62,0,0,0,532.34,319.59Z" transform="translate(-263.51 -222.27)"/><path class="cls-14" d="M533.4,298.49,530.85,319a1.62,1.62,0,0,0,1.49.64c6.24,0,8.81-3.73,12.18-12.95,1.73-4.72,1.69-7.66.85-9.66l-.72-.35C541.56,295.16,535.83,297.41,533.4,298.49Z" transform="translate(-263.51 -222.27)"/><path class="cls-14" d="M505.87,342.11l-11.21.72-7-3.86-.23-2.91-8.23-2.68-1.71-2.66.8,2.81-6.19-.58-1.5-2.54.33,2.7-3.17-.16-.94-1.53-.69,1.72-3.79.72.18-1.23-1.36,1.79-2.77,1.76-2.14,12.44h0l-2.06,2.11-2.46-1.13,3.59,4.4,5-11.87c1-2.28,1.68-4,1.68-4a8.66,8.66,0,0,1,2.05-.41,45.4,45.4,0,0,1,6.05-.48,65.68,65.68,0,0,1,9.3.55c.95.12,1.89.25,2.83.41a4.24,4.24,0,0,1,1.24.21c.29.17.51.73.67,1a19.94,19.94,0,0,1,1.65,5.07c.52,2.3,1,4.6,1.33,6.93.19,1.6,1.08,1.37,1.69,2.87.39,1,.84,1.93,1.19,2.93L488.27,346l7.4.88L507.25,344l3.16-7Z" transform="translate(-263.51 -222.27)"/><path class="cls-1" d="M485.86,298.75a17.09,17.09,0,0,0-.41,8.37c2.06.71,7.59.58,11,.18,0-6.89-1.66-8.27-1.66-8.27a13.86,13.86,0,0,0-5.49-1.51C486.67,297.52,485.86,298.75,485.86,298.75Z" transform="translate(-263.51 -222.27)"/><g class="cls-32"><path class="cls-1" d="M495.46,302.57c.5,4.08-2.32,4.79-5,4.5-3.16-.34-4.56-.73-4.85-4.5-.27-3.46,2.23-4.24,4.94-3.91C493.48,299,495.18,300.27,495.46,302.57Z" transform="translate(-263.51 -222.27)"/><path class="cls-30" d="M494.72,302.93a3.12,3.12,0,1,1-3.12-3.12A3.12,3.12,0,0,1,494.72,302.93Z" transform="translate(-263.51 -222.27)"/></g><path class="cls-30" d="M494.8,299C491,296.07,483,297,483,297l2.85,1.79S488.06,297.19,494.8,299Z" transform="translate(-263.51 -222.27)"/><path class="cls-1" d="M493.6,300.28a1.25,1.25,0,1,1-1.25-1.25A1.25,1.25,0,0,1,493.6,300.28Z" transform="translate(-263.51 -222.27)"/><path class="cls-23" d="M485.15,302.63s-.7,3.06-.8,4.2a4,4,0,0,1-1.37-1.16s-.26,2.3,4.75,2.63a48.48,48.48,0,0,0,10.82-.82l-2.09-.18s-9.6.65-10.42-.35S485.15,302.63,485.15,302.63Z" transform="translate(-263.51 -222.27)"/><path class="cls-14" d="M462.8,342.73l3.25,2.4,10.56-.15,5.59-2.58s3.29-2.49,1.35-4C479.44,338.71,462.8,342.73,462.8,342.73Z" transform="translate(-263.51 -222.27)"/><path class="cls-13" d="M483.55,338.43s.5,3.2-5.21,3.9-13.68.4-15.54.4c-.88,0-1.76-2.12-1.76-2.12a12.77,12.77,0,0,1,1-2.46c.42-.52,2.92-1.21,6.72-1.21s10,.52,11.29.65S483.55,337.71,483.55,338.43Z" transform="translate(-263.51 -222.27)"/><path class="cls-14" d="M462.8,342.73c1.86,0,9.82.31,15.54-.4s5.21-3.9,5.21-3.9c0-.72-2.21-.7-3.46-.84-.45,0-1.58-.15-3-.25,1.33.39.66,2.47.23,3.56s-9.19.08-11.25.26-3.86.91-5-.55C461,340.61,461.92,342.73,462.8,342.73Z" transform="translate(-263.51 -222.27)"/><path class="cls-33" d="M474.93,929.3c9.2,0,13.3,4.06,13.3,4.06L484.62,939l.66,18.87h-26l4.11-21.1-2.8-4.67S463.2,929.3,474.93,929.3Z" transform="translate(-263.51 -222.27)"/><path class="cls-33" d="M488.23,957.91s-2.79-14.3-22.83-14.3c-8.55,0-23.17,6-23.17,6l-5.91-1.42-3.78,2.59-1.81,7.15Z" transform="translate(-263.51 -222.27)"/><polygon class="cls-34" points="224.72 735.65 225.68 742.95 165.91 742.95 167.22 735.65 224.72 735.65"/><path class="cls-14" d="M465.4,943.61a39.66,39.66,0,0,0-9.08,1.37h0c4.89-.09,11.86,3.46,14.71,12.93h7.56A17,17,0,0,0,465.4,943.61Z" transform="translate(-263.51 -222.27)"/><path class="cls-14" d="M454.83,945.36c-1.94.53-3.83,1.11-5.54,1.67a13.6,13.6,0,0,1,5.18,10.88h9.78S462,947.46,454.83,945.36Z" transform="translate(-263.51 -222.27)"/><path class="cls-14" d="M460.63,932.14l2.8,4.67c14.37-5.18,21.19,2.23,21.19,2.23l3.61-5.68s-4.1-4.06-13.3-4.06C463.2,929.3,460.63,932.14,460.63,932.14Z" transform="translate(-263.51 -222.27)"/><path class="cls-27" d="M438.25,952.1,451,954.73a5,5,0,0,0-3.24-3.65c15.35-5.14,23.67-6.56,33.83-2.86-3.43-2.55-8.55-4.61-16.15-4.61-8.55,0-23.17,6-23.17,6l-5.91-1.42-3.78,2.59-1.81,7.15h4.2l.95-4.53Z" transform="translate(-263.51 -222.27)"/><path class="cls-33" d="M614.32,929.3c-9.2,0-13.31,4.06-13.31,4.06l3.62,5.68L604,957.91h26l-4.11-21.1,2.79-4.67S626,929.3,614.32,929.3Z" transform="translate(-263.51 -222.27)"/><path class="cls-33" d="M597.69,957.91s1.82-14.3,14.87-14.3c5.57,0,18.94,4.56,18.94,4.56l2.46,2.59,1.18,7.15Z" transform="translate(-263.51 -222.27)"/><path class="cls-27" d="M613.46,948.71c6.42,0,20.5,2,20.5,2l-2.46-2.59s-13.37-4.56-18.94-4.56c-9.36,0-12.93,7.34-14.21,11.51C600.52,952.16,604.88,948.71,613.46,948.71Z" transform="translate(-263.51 -222.27)"/><polygon class="cls-34" points="333.92 735.65 333.3 742.95 372.49 742.95 371.63 735.65 333.92 735.65"/><path class="cls-14" d="M628.61,932.14l-2.79,4.67c-14.38-5.18-21.19,2.23-21.19,2.23L601,933.36s4.11-4.06,13.31-4.06C626,929.3,628.61,932.14,628.61,932.14Z" transform="translate(-263.51 -222.27)"/><path class="cls-25" d="M552.77,312.92c-1.39-21.53-17.71-35.85-34.67-45.22-22.19-12.25-48.34-10.48-52.86-8.06l-1.18.73s-1.25-1.57,4.14-5.05,16.36-19.82,35.45-19.82,38.36,4.64,45.58,14.27,15.65,15.31,16.17,29.59-9.18,27.12-10,30.44S552.77,312.92,552.77,312.92Z" transform="translate(-263.51 -222.27)"/><path class="cls-31" d="M468.2,255.32c27-6.58,55.89,10.45,55.89,10.45s.72-3.61,6.14-10.32,5.67-9.29,2.6-15.82c-8.49-2.77-18.86-4.13-29.18-4.13C484.56,235.5,473.6,251.84,468.2,255.32Z" transform="translate(-263.51 -222.27)"/><path class="cls-25" d="M524.09,265.77c-18.37-21.33-18.67-36.55-39.23-42s-37.12,6-39.19,12.19,18.39,24.46,18.39,24.46,22.47-9.87,57.8,9.5C524.94,271.06,524.09,265.77,524.09,265.77Z" transform="translate(-263.51 -222.27)"/><path class="cls-14" d="M549.25,293c-4.25-8.22-8.32-11.19-14-16s-11.12-7.53-14.81-11.13c-16-20.73-19.17-31.8-38.8-37.18-17-4.67-31.55,1.47-35.49,6.15a8.1,8.1,0,0,0-.48,1.14c-2,5.9,17.22,21.76,18.3,24.26a.75.75,0,0,0,.09.2s4.87-2.14,13.64-2.47a88.28,88.28,0,0,1,16.84,1.54,99.06,99.06,0,0,1,27.28,10.41c15.56,9.37,29.66,23.13,30.95,43.07,0,0,1.69.16,2.53-2.61C555.41,306.12,552.7,299.61,549.25,293Z" transform="translate(-263.51 -222.27)"/><path class="cls-16" d="M556.34,532.65a28.09,28.09,0,0,0,4.72-2.59c.15-.09,0-.33-.14-.24a26,26,0,0,1-15.09,3.68c-.57,0-.63.68-.26,1a31.1,31.1,0,0,0,8.59,4.66,6.33,6.33,0,0,0-3.91,4.21c-1.88,5.78-1.8,12.74-2.58,18.74-.92,7.11-1.93,14.22-2.65,21.35-.62,6.14-1.39,13,.2,19a1,1,0,0,0,2-.28c-.09-5-.67-9.92-.37-15,.28-4.76.87-9.5,1.4-14.23.56-4.94,1.09-9.89,1.63-14.83.52-4.77-.33-18.1,7-18.18a.64.64,0,0,0,.17-1.26c-2.35-.58-6.5-1.24-8.06-3.13a4,4,0,0,0-.85-.81,3.92,3.92,0,0,0,1.33-.33C551.6,533.54,554.15,533.56,556.34,532.65Z" transform="translate(-263.51 -222.27)"/><path class="cls-13" d="M650,629.8c1.49.52,1.08,1.76,1.12,4.21s1.67,6.41,1,8.16-4,1.52-4.71,0,.05-4.34-.45-6.36-1.37-3.27-.58-4.5S648.36,629.23,650,629.8Z" transform="translate(-263.51 -222.27)"/><path class="cls-13" d="M652.05,642.49a40.3,40.3,0,0,0-.76,6c-.08,1.22-.38,2.35-2.28,2.32s-2.41-1.49-2.12-3,.94-3.94.63-5.1a2.07,2.07,0,0,1,2.18-2.59C651.44,640.15,652.5,640.5,652.05,642.49Z" transform="translate(-263.51 -222.27)"/><path class="cls-13" d="M650.78,650.09a14.06,14.06,0,0,0-.74,3.33c-.22,1.12-.27,1.74-1.32,1.94s-2.59.09-3.09-.91-.63-1.37-.57-1.77a6.31,6.31,0,0,1,.92-2c.57-.94.52-1.9,1.87-2.19S651.31,648.78,650.78,650.09Z" transform="translate(-263.51 -222.27)"/><path class="cls-35" d="M649.82,652.14c-.14-.66-2.08-1.06-2.41-.78-.44,1.14-.85,2.76-.85,2.76a5.29,5.29,0,0,1,2.69.58C649.54,653.67,649.82,652.14,649.82,652.14Z" transform="translate(-263.51 -222.27)"/><path class="cls-13" d="M621.26,613.68c2.29-1.48,5.71-2.07,8.43-2.29a8.37,8.37,0,0,1,6.88,2.69c4.2,4.57,12.17,13.46,13.59,16.52-2.24,4-23.21,5.25-23.21,5.25S619.62,627.55,621.26,613.68Z" transform="translate(-263.51 -222.27)"/><path class="cls-13" d="M646.3,629.83c1.69.58,1.22,2,1.27,4.79s1.9,7.29,1.15,9.28-4.54,1.73-5.37.05.07-4.94-.5-7.23-1.57-3.73-.67-5.13S644.42,629.18,646.3,629.83Z" transform="translate(-263.51 -222.27)"/><path class="cls-13" d="M648.61,644.27a48.23,48.23,0,0,0-.87,6.78c-.08,1.38-.43,2.67-2.59,2.63s-2.74-1.69-2.41-3.37,1.08-4.49.72-5.81a2.35,2.35,0,0,1,2.48-3C647.92,641.6,649.13,642,648.61,644.27Z" transform="translate(-263.51 -222.27)"/><path class="cls-13" d="M647.17,652.92a15.94,15.94,0,0,0-.85,3.79c-.25,1.27-.3,2-1.49,2.21s-3,.1-3.52-1-.72-1.56-.66-2a7.41,7.41,0,0,1,1.06-2.28c.65-1.07.58-2.16,2.13-2.49S647.77,651.43,647.17,652.92Z" transform="translate(-263.51 -222.27)"/><path class="cls-35" d="M646.08,655.26c-.16-.76-2.37-1.21-2.75-.89-.49,1.3-1,3.14-1,3.14a6,6,0,0,1,3.06.66C645.76,657,646.08,655.26,646.08,655.26Z" transform="translate(-263.51 -222.27)"/><path class="cls-35" d="M647.15,653a2.62,2.62,0,0,0,.19-1.09,7.18,7.18,0,0,0-.13-1.09,23.22,23.22,0,0,1-.25-2.34c-.07-.78-.07-1.57-.07-2.36,0-.4,0-.8,0-1.2l.05-.6,0-.31v-.26l.13-.39h0l0,.13h0v-.05l0-.24,0-.11,0,0s0,0,0,0,0-.38-.1-.61-.1-.5-.16-.76-.15-.54-.23-.82c-.18-.56-.31-1.14-.49-1.75a15.36,15.36,0,0,1-.43-1.89c-.05-.33-.1-.68-.13-1a10.58,10.58,0,0,1,0-1.13,6.14,6.14,0,0,1,.11-1l.17-1a7.78,7.78,0,0,1,.38-1.55,3,3,0,0,0,.27-.54,2.07,2.07,0,0,0-.2-1,2.05,2.05,0,0,1,.79.47,1.63,1.63,0,0,1,.41.83,8.89,8.89,0,0,1,.09,1.86c0,.63,0,1.25,0,1.87a12.65,12.65,0,0,0,.24,1.85c.23,1.23.55,2.44.78,3.66a14.47,14.47,0,0,1,.27,1.85,7.37,7.37,0,0,1,0,.94,2.84,2.84,0,0,1-.23.9h0c-.06.37-.16.74-.22,1.11l-.19,1.12c-.11.75-.21,1.51-.29,2.26s-.14,1.51-.19,2.27A3.55,3.55,0,0,1,647.15,653Z" transform="translate(-263.51 -222.27)"/><path class="cls-13" d="M624.27,631.64c-3.9-2.58-9.22-2.48-10.57.53-.75,3.92-1.59,5.69-3.43,6.74s-7.74,1-10.24-.6-3-5-1.65-6.54c1.55.35,5.35-.4,5.35-.4s.25-.75,1.94-1.6,3.11-2.51,4.11-6.65c.5-2.1,2-1.45,4.24-2.5a17.2,17.2,0,0,0,7.24-6.94c2.39,1.05,6.45,7.93,6,12.32S625.6,632.52,624.27,631.64Z" transform="translate(-263.51 -222.27)"/><path class="cls-35" d="M603.73,631.37a6.72,6.72,0,0,1,2.39,3.14,21.85,21.85,0,0,1-4.19.78s-1.6-2.82-2.7-3.43C600.93,631.78,603.73,631.37,603.73,631.37Z" transform="translate(-263.51 -222.27)"/><path class="cls-13" d="M642.37,629.79c2,.68,1.15,3.2,1.35,6.09s1.84,8,2,10-1,2.46-3.66,2.26-2.3-.83-3.53-6.76c-.6-2.9-3.16-6.62-3.62-8.38S637.13,628,642.37,629.79Z" transform="translate(-263.51 -222.27)"/><path class="cls-13" d="M645.61,646.6a52.63,52.63,0,0,0,.08,7.61c.12,1.54-.06,3-2.45,3.3s-3.28-1.44-3.18-3.35.5-5.11-.1-6.51a2.62,2.62,0,0,1,2.28-3.64C644.43,643.77,645.83,644,645.61,646.6Z" transform="translate(-263.51 -222.27)"/><path class="cls-13" d="M645.77,656a18.3,18.3,0,0,0,.2,4.32c.1,1.44.24,2.21-1,2.81s-3.14,1-4.09-.09-1.22-1.47-1.28-2a8.11,8.11,0,0,1,.47-2.75c.39-1.35,0-2.5,1.56-3.31S646,654.19,645.77,656Z" transform="translate(-263.51 -222.27)"/><path class="cls-35" d="M645.28,658.8c-.39-.77-2.9-.61-3.21-.16-.16,1.55-.12,3.66-.12,3.66a6.74,6.74,0,0,1,3.48-.18C645.44,660.77,645.28,658.8,645.28,658.8Z" transform="translate(-263.51 -222.27)"/><path class="cls-35" d="M645.77,656a1.1,1.1,0,0,0-.22-.58v-.08c-.09-.34-.15-.67-.22-1s-.18-.67-.26-1a15.8,15.8,0,0,1-.45-2c-.12-.69-.23-1.38-.33-2.08s-.19-1.41-.22-2.13l.11-.47s0-.23-.08-.47c0,0,0-.12,0,0l0-.14-.06-.28-.13-.42-.65-2.08c-.22-.72-.48-1.43-.68-2.18a22.82,22.82,0,0,1-.57-2.27,13.12,13.12,0,0,1-.27-2.5V636a1,1,0,0,1,0-.18l0-.29,0-.64c0-.43.12-.82.18-1.21.15-.75.25-1.46.39-2,.08-.29.18-.5.25-.77a1.7,1.7,0,0,0-.18-1.16,1.91,1.91,0,0,1,.9.66,2.34,2.34,0,0,1,.38,1.06,14.22,14.22,0,0,1,.05,2.26,21.46,21.46,0,0,0,0,2.27,20.86,20.86,0,0,0,.34,2.24c.3,1.49.67,3,1,4.43.18.73.35,1.47.48,2.22a4.26,4.26,0,0,1,0,2.24h0c-.08,1.36-.08,2.72,0,4.08,0,.68.06,1.36.1,2a19.86,19.86,0,0,1,.06,2h0A1.16,1.16,0,0,1,645.77,656Z" transform="translate(-263.51 -222.27)"/><path class="cls-13" d="M627,635.85c3,5.49,3.66,8.4,4.9,12.09s7.84,1.51,6.94-1.53-1.11-1.92-2-5.56a31.85,31.85,0,0,1-1.21-6.9c0-2-2.53-3.25-5-2.75S625.09,632.48,627,635.85Z" transform="translate(-263.51 -222.27)"/><path class="cls-13" d="M635.84,645c-3.27.36-4.39,2.7-3.24,4.55a14.67,14.67,0,0,1,1.63,5.6c.21,2,.71,2.7,3.15,2.66s3.26-1.3,2.53-3.54a17.59,17.59,0,0,1-1-6.62C639.14,646,638.14,644.7,635.84,645Z" transform="translate(-263.51 -222.27)"/><path class="cls-13" d="M634.19,661.54a25.56,25.56,0,0,0,.22-4.67,3.08,3.08,0,0,1,3.55-3,2.67,2.67,0,0,1,2.24,3.34c-.35.5-.43,1.1-.13,2.88s.58,2.27.13,3-1.82,1.61-4.38.7A3.88,3.88,0,0,1,634.19,661.54Z" transform="translate(-263.51 -222.27)"/><path class="cls-35" d="M636.59,658.4c1.25-1.06,2.93.16,2.93.16l.38,4a25.18,25.18,0,0,0-3.47-.25C635.75,660.57,636,658.91,636.59,658.4Z" transform="translate(-263.51 -222.27)"/><path class="cls-35" d="M640.2,657.24a1.39,1.39,0,0,0-.06-.73,3.85,3.85,0,0,0-.28-.66v-.11a4,4,0,0,0-.35-1.06c-.16-.32-.38-.72-.56-1.1a19.67,19.67,0,0,1-.89-2.4,15.82,15.82,0,0,1-.59-2.61c0-.23,0-.48-.05-.73a4.93,4.93,0,0,0,0-.58.71.71,0,0,0-.18-.41l-.09-.22a9.73,9.73,0,0,0-.45-1c-.16-.31-.3-.54-.52-.92a8.54,8.54,0,0,1-.62-1.29c-.18-.43-.33-.86-.46-1.26s-.26-.82-.36-1.19l-.32-1.16a22.31,22.31,0,0,1-.54-2.41,12,12,0,0,1-.22-2.64l0-.67c0,.16,0-.47,0-.3s0,0,0,0a.63.63,0,0,0,0-.21,3,3,0,0,0-1.05-1c-.25-.18-.54-.39-.88-.6l-1.17-.73a5.57,5.57,0,0,1,2.37.06,3.9,3.9,0,0,1,2,1.17,2.3,2.3,0,0,1,.56,1,9.39,9.39,0,0,1,.1,1.19A18.84,18.84,0,0,0,636,637c.31,1.57.68,3.12,1.06,4.66a11.13,11.13,0,0,0,.79,2.25,12.82,12.82,0,0,1,.88,2.22h0a2.57,2.57,0,0,1,.22,1.19,8.33,8.33,0,0,0-.08,1.22,15.17,15.17,0,0,0,.25,2.43,24.33,24.33,0,0,0,.55,2.39,7.51,7.51,0,0,1,.51,2.38h0a3.72,3.72,0,0,1,.14.74A1.42,1.42,0,0,1,640.2,657.24Z" transform="translate(-263.51 -222.27)"/><path class="cls-13" d="M333,417.49c-3.33.2-9.42-3.72-12.32-6.56s-5.22-3.1-7.67,0-12.25,23.73-10.57,28.25,7.22,8.77,11.86,10.19,9.46,7.15,11.11,10.19,14.17-10.26,10.53-12.49-1.76-6.83-.67-9.46,4.46-7,3.67-12.56S336.53,417.29,333,417.49Z" transform="translate(-263.51 -222.27)"/><path class="cls-13" d="M316.49,408.71c3.18,2,2.32,4.67-.39,7.12s-5.93,1.71-7.35-1.59-8.61-10-9.38-10.41-3-3.18,0-6.62,9.76,1.89,10.71,4A22.57,22.57,0,0,0,316.49,408.71Z" transform="translate(-263.51 -222.27)"/><path class="cls-13" d="M309.48,406.68c-3.53-.93-4.3,2.48-6.8,5.15s-4.47,4.62-3.31,8.07,5,3.11,6.75.44S311,417.1,312,414,313.43,407.72,309.48,406.68Z" transform="translate(-263.51 -222.27)"/><path class="cls-13" d="M306.82,414.16c-3-.93-3.7,2.49-5.84,5.15s-3.84,4.63-2.84,8.08,4.32,3.1,5.8.44,4.21-3.25,5.06-6.34S310.21,415.21,306.82,414.16Z" transform="translate(-263.51 -222.27)"/><path class="cls-13" d="M301.78,423.59c-2.65.17-2.15,3-3,5.76s-1.65,4.76.16,7.17,4.3,1.15,4.67-1.37,2.34-3.79,2.09-6.46S304.75,423.41,301.78,423.59Z" transform="translate(-263.51 -222.27)"/><path class="cls-36" d="M345.11,407.73c2.23,3.55-.26,9.12-5.55,12.45s-11.4,3.15-13.63-.4.26-9.11,5.56-12.44S342.88,404.19,345.11,407.73Z" transform="translate(-263.51 -222.27)"/><path class="cls-36" d="M325.49,372.43c2.59,4.13-.82,10.93-7.61,15.2s-14.4,4.39-17,.26.81-10.93,7.6-15.2S322.89,368.31,325.49,372.43Z" transform="translate(-263.51 -222.27)"/><polygon class="cls-36" points="80.77 180.75 61.66 149.72 37.37 165.63 58.33 194.84 80.77 180.75"/><path class="cls-36" d="M344.28,403c2.59,4.13-.33,10.63-6.52,14.52s-13.32,3.71-15.92-.42.33-10.63,6.53-14.52S341.69,398.88,344.28,403Z" transform="translate(-263.51 -222.27)"/><path class="cls-14" d="M340.36,415.57,320.16,386a22.77,22.77,0,0,1-2.28,1.63c-4.28,2.69-8.89,3.73-12.36,3.1h0l18.4,28.38c3.35,2,8.89,1.53,13.84-1.58A20.09,20.09,0,0,0,340.36,415.57Z" transform="translate(-263.51 -222.27)"/><path class="cls-31" d="M325.49,372.43c2.59,4.13-.82,10.93-7.61,15.2s-14.4,4.39-17,.26.81-10.93,7.6-15.2S322.89,368.31,325.49,372.43Z" transform="translate(-263.51 -222.27)"/><path class="cls-14" d="M320.18,374,308.67,385.6l7.6,2.95c.54-.28,1.08-.58,1.61-.92,4.85-3,8-7.38,8.41-11.11Z" transform="translate(-263.51 -222.27)"/><path class="cls-37" d="M320.18,374c1.56,2.49-.67,6.7-5,9.41s-9.08,2.89-10.64.4.67-6.69,5-9.4S318.62,371.55,320.18,374Z" transform="translate(-263.51 -222.27)"/><polygon class="cls-37" points="56.67 151.77 51.41 141.57 33.65 152.72 41.05 161.59 56.67 151.77"/><path class="cls-37" d="M314.92,363.83c1.56,2.49-1.15,7-6.05,10.08s-10.15,3.57-11.71,1.08,1.15-7,6-10.08S313.36,361.35,314.92,363.83Z" transform="translate(-263.51 -222.27)"/><path class="cls-31" d="M314.92,363.83c1.56,2.49-1.15,7-6.05,10.08s-10.15,3.57-11.71,1.08,1.15-7,6-10.08S313.36,361.35,314.92,363.83Z" transform="translate(-263.51 -222.27)"/><path class="cls-14" d="M311,363.89l-11.33,8.4,7.14,2.77a20.73,20.73,0,0,0,2.09-1.15c3.86-2.42,6.35-5.73,6.48-8.24Z" transform="translate(-263.51 -222.27)"/><path class="cls-37" d="M311,363.89c1.19,1.9-.56,5.14-3.91,7.25s-7,2.27-8.22.37.56-5.14,3.91-7.24S309.78,362,311,363.89Z" transform="translate(-263.51 -222.27)"/><path class="cls-37" d="M307.07,355.92c1.38,2.2-.65,6-4.54,8.42s-8.18,2.65-9.56.44.64-6,4.54-8.42S305.68,353.71,307.07,355.92Z" transform="translate(-263.51 -222.27)"/><polygon class="cls-37" points="47.46 141.63 43.56 133.65 29.45 142.52 35.33 149.25 47.46 141.63"/><path class="cls-38" d="M307.07,355.92c1.38,2.2-.65,6-4.54,8.42s-8.18,2.65-9.56.44.64-6,4.54-8.42S305.68,353.71,307.07,355.92Z" transform="translate(-263.51 -222.27)"/><path class="cls-39" d="M303.42,356c.94,1.49-.33,4-2.83,5.54s-5.28,1.63-6.22.14.33-4,2.83-5.54S302.48,354.49,303.42,356Z" transform="translate(-263.51 -222.27)"/><path class="cls-14" d="M301.54,355.83l-6,4.42,8.22,3.19a9.3,9.3,0,0,0,3.63-5.22Z" transform="translate(-263.51 -222.27)"/><path class="cls-37" d="M331.18,417.33s-7.34,20-11,36.81l-8.54-10.06,14.19-35.86Z" transform="translate(-263.51 -222.27)"/><polygon class="cls-31" points="62.34 185.95 48.15 221.81 48.62 222.37 62.53 186.29 62.34 185.95"/><polygon class="cls-36" points="55.82 174.82 46.77 176.75 38.47 221.81 48.15 221.81 62.34 185.95 55.82 174.82"/><path class="cls-14" d="M304.14,432.38a6,6,0,0,1,3-.59,6.23,6.23,0,0,0,6.49-7,4.94,4.94,0,0,0,1.32-.65l.58-3.54-6.75.71-4,7.92Z" transform="translate(-263.51 -222.27)"/><polygon class="cls-14" points="46.21 185.24 53.52 188.88 55.82 174.82 52.32 172.24 46.21 185.24"/><polygon class="cls-23" points="62.34 185.95 55.82 174.82 48.15 221.81 62.34 185.95"/><polygon class="cls-36" points="51.52 210.12 63.75 226.29 57.39 254.1 31.25 255.35 13.03 236.66 26.81 213.56 51.52 210.12"/><polygon class="cls-37" points="60.5 240.51 46.47 221.81 40.66 235.23 57.39 254.1 60.5 240.51"/><polygon class="cls-37" points="46.47 221.81 20.72 223.76 13.03 236.66 40.66 235.23 46.47 221.81"/><polygon class="cls-14" points="57.39 254.1 40.66 235.23 13.03 236.66 31.25 255.35 57.39 254.1"/><polygon class="cls-14" points="51.52 210.12 40.66 235.23 57.39 254.1 63.75 226.29 51.52 210.12"/><polygon class="cls-23" points="20.72 223.76 46.47 221.81 46.83 220.97 21.02 223.26 20.72 223.76"/><polygon class="cls-23" points="46.83 220.97 60.65 239.86 60.5 240.51 46.47 221.81 46.83 220.97"/><polygon class="cls-31" points="51.52 210.12 26.81 213.56 26.59 213.92 50.58 210.94 40.16 235.25 40.66 235.23 51.52 210.12"/><polygon class="cls-31" points="45.9 221.86 20.72 223.76 20.45 224.21 45.68 222.37 45.9 221.86"/><polygon class="cls-31" points="51.52 210.12 63.75 226.29 51.16 210.96 51.52 210.12"/><polygon class="cls-40" points="52.32 172.24 48.15 173.22 44.08 180.66 46.21 185.24 51.97 184.53 53.52 175.31 52.32 172.24"/><polygon class="cls-14" points="53.52 175.31 51.97 184.53 49.52 179.5 52.32 172.24 53.52 175.31"/><polygon class="cls-23" points="44.08 180.66 46.21 185.24 51.97 184.53 49.52 179.5 44.08 180.66"/><path class="cls-37" d="M302.81,355.75c.82,1.29-.38,3.5-2.66,4.93s-4.79,1.55-5.6.26.38-3.5,2.66-4.94S302,354.45,302.81,355.75Z" transform="translate(-263.51 -222.27)"/><path class="cls-38" d="M301.54,355.86c.62,1-.29,2.69-2.05,3.8s-3.69,1.19-4.31.19.29-2.69,2.05-3.8S300.91,354.86,301.54,355.86Z" transform="translate(-263.51 -222.27)"/><polygon class="cls-38" points="38.03 133.59 12.14 89.45 0.91 96.51 31.66 137.59 38.03 133.59"/><path class="cls-38" d="M275.65,311.72c-2-3.4-10.15-3.3-10.15-3.3s-3.63,6.95-1.08,10.36c1.1,1.75,4.51,1.6,7.61-.35S276.75,313.48,275.65,311.72Z" transform="translate(-263.51 -222.27)"/><path class="cls-23" d="M275,310.91c1.44,1.72.85,7.07-1.23,9.93-1.49,2.06-5,3.76-5.94,2.47l2.77,3.66c.94,1.3,4.28-.16,5.77-2.22,2.22-3.05,2.71-7.14,1.21-9.77l-1.91-3.26A4,4,0,0,0,275,310.91Z" transform="translate(-263.51 -222.27)"/><path class="cls-23" d="M280,319.11c1.47,2.51.71,6.4-1.46,9.31-1.46,2-4.56,3.11-5.49,1.87l2.38,3.17c.92,1.24,4,.09,5.48-1.87,1.88-2.52,2.77-6.2,1.3-8.71Z" transform="translate(-263.51 -222.27)"/><path class="cls-23" d="M285.83,329.07c1.48,2.53.24,5.92-1.18,7.86s-4.35,3.11-5.24,1.87l-1.93-2.58c.89,1.24,3.76,0,5.24-1.87,1.88-2.41,2.67-5.91,1.27-8.42Z" transform="translate(-263.51 -222.27)"/><path class="cls-23" d="M289,334.5c1.48,2.52.57,5.54-.85,7.48s-4.21,2.93-5.1,1.69l-2-2.62c.89,1.24,3.81.07,5.24-1.87s2.45-5.07,1-7.59Z" transform="translate(-263.51 -222.27)"/><path class="cls-23" d="M292.07,339.72a6,6,0,0,1-.52,6.9c-1.42,1.94-4.17,2.88-5.05,1.64L284.8,346c.89,1.24,3.63.3,5.06-1.64a6.6,6.6,0,0,0,.66-7.28Z" transform="translate(-263.51 -222.27)"/><path class="cls-23" d="M290.26,353.32c.87,1.18,3.68.25,4.83-1.38a5.49,5.49,0,0,0,.47-6.29l-1.85-3.14a6.1,6.1,0,0,1-.32,6.71c-1.21,1.83-4.24,2.64-5.13,1.4Z" transform="translate(-263.51 -222.27)"/><path class="cls-23" d="M264.42,318.78c1.37,1.83,5.23-.6,5.79-3.27s.08-6-4.71-7.09c1.05,1,1.14,2.79-.28,4.56S263.39,317.4,264.42,318.78Z" transform="translate(-263.51 -222.27)"/><path class="cls-23" d="M267.12,309a9.06,9.06,0,0,0-1.62-.53c1.05,1,1.14,2.79-.28,4.56s-1.83,4.42-.8,5.8a1.57,1.57,0,0,0,1.07.61c-1.93-.6.48-3.83,1.56-5.12S269.11,310.32,267.12,309Z" transform="translate(-263.51 -222.27)"/><g class="cls-41"><path class="cls-9" d="M265.43,310.94a2.86,2.86,0,0,0,.07-2.52,18.81,18.81,0,0,0-2,7A11.86,11.86,0,0,1,265.43,310.94Z" transform="translate(-263.51 -222.27)"/><path class="cls-9" d="M301.54,355.86l-25.89-44.14c-2-3.4-10.15-3.3-10.15-3.3s6.67.95,8.32,3.3,27.69,45.18,27.82,45.41A1.53,1.53,0,0,0,301.54,355.86Z" transform="translate(-263.51 -222.27)"/></g><path class="cls-23" d="M298.68,360.08l-28.93-42.16s2.15-2.79,1.14-5.52l29.65,46.43A7.1,7.1,0,0,1,298.68,360.08Z" transform="translate(-263.51 -222.27)"/><path class="cls-14" d="M342.68,405.67a1,1,0,0,1-1-.69c-.59-1.19-8.61-14.07-13.91-22.53a1,1,0,0,1,.32-1.42,1,1,0,0,1,1.43.32c14.17,22.62,14.17,22.9,14.17,23.29A1,1,0,0,1,342.68,405.67Z" transform="translate(-263.51 -222.27)"/><path class="cls-14" d="M329.54,381.35a1,1,0,0,0-1.43-.32.86.86,0,0,0-.29.28,1,1,0,0,1,1,.47C343,404.39,343,404.67,343,405.06a1,1,0,0,1-.21.6,1,1,0,0,0,1-1C343.71,404.25,343.71,404,329.54,381.35Z" transform="translate(-263.51 -222.27)"/><path class="cls-14" d="M341.93,409.36a1,1,0,0,1-1-.7c-.59-1.19-8.79-14.36-14.22-23a1,1,0,0,1,.33-1.42,1,1,0,0,1,1.42.33C343,407.65,343,407.94,343,408.33A1,1,0,0,1,341.93,409.36Z" transform="translate(-263.51 -222.27)"/><path class="cls-14" d="M328.48,384.55a1,1,0,0,0-1.42-.33,1,1,0,0,0-.25.24,1.05,1.05,0,0,1,.71.46C342,408,342,408.31,342,408.7a1,1,0,0,1-.24.63l.18,0a1,1,0,0,0,1-1C343,407.94,343,407.65,328.48,384.55Z" transform="translate(-263.51 -222.27)"/><path class="cls-14" d="M340.19,412.18a1,1,0,0,1-1-.69c-.6-1.21-9-14.73-14.62-23.62a1,1,0,0,1,.32-1.42,1,1,0,0,1,1.43.33c14.88,23.69,14.88,24,14.88,24.36A1,1,0,0,1,340.19,412.18Z" transform="translate(-263.51 -222.27)"/><path class="cls-14" d="M326.34,386.78a1,1,0,0,0-1.82.17,1,1,0,0,1,.46.38c14.88,23.7,14.88,24,14.88,24.37a1.17,1.17,0,0,1-.07.38.88.88,0,0,0,.4.1,1,1,0,0,0,1-1C341.22,410.75,341.22,410.47,326.34,386.78Z" transform="translate(-263.51 -222.27)"/><path class="cls-31" d="M325.49,372.43s.06.13.19.37l.23.45.21.65a6.26,6.26,0,0,1,.22,1.81,8.65,8.65,0,0,1-.37,2.34,12.69,12.69,0,0,1-1.12,2.58A17.46,17.46,0,0,1,323,383.2a20.4,20.4,0,0,1-2.37,2.37,23.08,23.08,0,0,1-5.86,3.68,20.26,20.26,0,0,1-3.17,1.11,17.31,17.31,0,0,1-3.09.51,12.27,12.27,0,0,1-2.81-.11,8.67,8.67,0,0,1-2.27-.68,5.94,5.94,0,0,1-1.54-1l-.49-.47-.3-.4c-.17-.21-.25-.33-.25-.33a3.51,3.51,0,0,1,.36.25l.4.3a5.87,5.87,0,0,1,.57.33,10.1,10.1,0,0,0,1.55.67,10.29,10.29,0,0,0,2.11.48,12,12,0,0,0,2.6,0c.93-.11,1.9-.33,2.9-.55a20,20,0,0,0,3-1c.51-.2,1-.47,1.47-.69s1-.56,1.5-.8a24.79,24.79,0,0,0,2.75-1.89,20.67,20.67,0,0,0,2.36-2.2,15.53,15.53,0,0,0,1.86-2.38,11.39,11.39,0,0,0,1.22-2.41c.13-.4.25-.78.35-1.15a7.3,7.3,0,0,0,.17-1.08,5.85,5.85,0,0,0-.08-1.77c-.06-.24-.11-.46-.15-.65l-.2-.46Z" transform="translate(-263.51 -222.27)"/><path class="cls-31" d="M314.92,363.83l.13.26a3.11,3.11,0,0,1,.26.76l.05.57c0,.21,0,.44-.05.68a6.08,6.08,0,0,1-.48,1.55A11.62,11.62,0,0,1,312.5,371a15.81,15.81,0,0,1-1.7,1.55,20.45,20.45,0,0,1-1.93,1.38,20.11,20.11,0,0,1-2.08,1.14,15.94,15.94,0,0,1-2.14.86,11.77,11.77,0,0,1-4,.66,6.4,6.4,0,0,1-1.61-.25c-.23-.07-.44-.17-.63-.24l-.5-.3a2.74,2.74,0,0,1-.57-.56l-.18-.23.29.14a4.09,4.09,0,0,0,.72.29l.5.13.58.09a7.12,7.12,0,0,0,1.42.06,12.88,12.88,0,0,0,1.73-.25c.62-.16,1.26-.34,1.92-.56.33-.11.66-.24,1-.37s.67-.27,1-.42.66-.32,1-.47l1-.54a22.28,22.28,0,0,0,1.92-1.22,18.21,18.21,0,0,0,1.69-1.4,11.28,11.28,0,0,0,2.48-3,6.47,6.47,0,0,0,.6-1.42c.06-.22.08-.43.12-.63s0-.39,0-.56a2.71,2.71,0,0,0-.16-.77Z" transform="translate(-263.51 -222.27)"/><path class="cls-31" d="M307.07,355.92a3.45,3.45,0,0,1,.34.83,3.87,3.87,0,0,1,.08,1,4.84,4.84,0,0,1-.28,1.3,12.59,12.59,0,0,1-11.47,7.2,4.69,4.69,0,0,1-1.29-.31,3.48,3.48,0,0,1-.89-.51,3.15,3.15,0,0,1-.59-.67l.25.1a4.27,4.27,0,0,0,.62.22,8.06,8.06,0,0,0,.87.2,6.27,6.27,0,0,0,1.13.11,11.35,11.35,0,0,0,2.91-.52c.53-.18,1.08-.36,1.63-.59.28-.1.52-.24.79-.36s.6-.3.84-.42a13.22,13.22,0,0,0,2.89-2.12,8.2,8.2,0,0,0,1.9-2.47,5.5,5.5,0,0,0,.43-1.18,3.7,3.7,0,0,0,0-1,2.48,2.48,0,0,0-.14-.63Z" transform="translate(-263.51 -222.27)"/><path class="cls-31" d="M337.76,417.53l.48-.36a14,14,0,0,0,1.32-1.09,16.76,16.76,0,0,0,3.72-4.68,10.84,10.84,0,0,0,1.25-3.67,6.14,6.14,0,0,0-.7-4c-.76-1.28-1.72-2.69-2.6-4.07l-2.73-4.22c-1.86-2.81-3.59-5.71-5.27-8.39-.86-1.33-1.62-2.65-2.33-3.91l-2-3.55c-.63-1.1-1.22-2.09-1.68-3-.24-.45-.46-.88-.66-1.28s-.35-.78-.51-1.12c-.31-.67-.51-1.23-.65-1.61s-.2-.59-.2-.59l14.15,23,2.64,4.29c.86,1.42,1.75,2.78,2.53,4.16a6.74,6.74,0,0,1,.6,4.42,11.42,11.42,0,0,1-1.44,3.8,15.63,15.63,0,0,1-2.06,2.75,18.91,18.91,0,0,1-1.95,1.81,15.9,15.9,0,0,1-1.38,1Z" transform="translate(-263.51 -222.27)"/><path class="cls-14" d="M315.2,383.45a15.12,15.12,0,0,0,2.94-2.4l-5.58-10.13,0,0a18.8,18.8,0,0,1-3.67,3c-.54.34-1.08.65-1.62.92h0l6.67,9.33C314.34,384,314.77,383.72,315.2,383.45Z" transform="translate(-263.51 -222.27)"/><path class="cls-13" d="M335.06,414.67c0-1.92.65-5.63,2.58-7.74s6.93-2.54,7.74-2.15,2.28,2.32,2.11,3.52-4.56,3.79-4.9,6.11-.59,3.68-1.64,5.07S335.06,419,335.06,414.67Z" transform="translate(-263.51 -222.27)"/><path class="cls-13" d="M335.06,414.67c0,1.91-3,3.28-4.18,3.5-.87,2.46-2.76,7.56-4.57,13.58s-1.52,14.31,1.74,13,4-1.9,5.77-4.82c3.57-6.07,6-7.82,6.1-11.78s.31-7.1,1-8.69c1.08-2.36.76-3.78-1.11-4.81S335.06,413.52,335.06,414.67Z" transform="translate(-263.51 -222.27)"/><path class="cls-13" d="M305.18,399.45c-2.37,2.53-6,3.25-7.33,1.11s-1.44-3.18-3.77-5.41-2.53-3.83-2.06-5.12a6,6,0,0,1,6.71-3.44,9.59,9.59,0,0,1,6.92,6.79C306.21,395.92,307,397.47,305.18,399.45Z" transform="translate(-263.51 -222.27)"/><path class="cls-35" d="M305.65,393.38a7.33,7.33,0,0,0-.9-1.68,9.15,9.15,0,0,0-1.18-1.44,9.9,9.9,0,0,0-3-2,7.62,7.62,0,0,0-1.64-.52l-.42-.08-.42,0a3.79,3.79,0,0,0-.77,0,4.5,4.5,0,0,0-2.63,1.29,5.05,5.05,0,0,0-.93,1.14,2.27,2.27,0,0,0-.24.53,1.1,1.1,0,0,0-.06.48,2,2,0,0,0,.33.95,6.26,6.26,0,0,0,.91,1.13,8.27,8.27,0,0,0,.61.56c.26.24.46.41.75.69a14.25,14.25,0,0,1,1.5,1.68,19.06,19.06,0,0,1,1.15,1.82c.33.58.58,1,.95,1.57l.28.41,0,.79a2.11,2.11,0,0,0,.24,1,1.17,1.17,0,0,0,.26.37s0,0,0,0l-.05,0h0l.13.08h0l.11.08.29.23a2.22,2.22,0,0,1,.33.28c.61.56,1.14,1.1,1.67,1.66s1.06,1.11,1.54,1.71,1,1.17,1.45,1.78a21.28,21.28,0,0,1,1.36,1.87,11.23,11.23,0,0,1,.58,1,10.86,10.86,0,0,1,.47,1.11,6.29,6.29,0,0,1,.32,1.19,4.06,4.06,0,0,1,.08,1.26,11.53,11.53,0,0,0-1.15-1.91c-.44-.6-.91-1.18-1.39-1.75-1-1.13-2-2.22-3-3.27s-2.12-2.08-3.25-3.05c-.28-.25-.61-.43-.89-.68a4,4,0,0,1-1.19-3h0c-.7-1.08-1.21-2.27-1.94-3.33a13.41,13.41,0,0,0-1.23-1.48c-.44-.47-.92-.9-1.34-1.38a7.46,7.46,0,0,1-1.1-1.58,3.55,3.55,0,0,1-.41-1.86,3.41,3.41,0,0,1,.67-1.78,6.69,6.69,0,0,1,1.3-1.41,5.78,5.78,0,0,1,3.55-1.3,6.73,6.73,0,0,1,1.9.29,7.91,7.91,0,0,1,1.77.75,9.67,9.67,0,0,1,2.91,2.49A8.67,8.67,0,0,1,305.65,393.38Z" transform="translate(-263.51 -222.27)"/><path class="cls-13" d="M306.53,407.13c-2.46,1.86-2.14,6.16-.67,8.14s3,.4,4.95.78c4.77.95,10.25.52,10.25-3,0-6.54-2.08-6.46-3.64-6.46s-4,.6-6.13-.26S308.1,405.94,306.53,407.13Z" transform="translate(-263.51 -222.27)"/><path class="cls-35" d="M318.53,407.48c-1.42.95-1.57,3.74-1.87,5.1a43.39,43.39,0,0,1-5.59-.71s.23-3.22,1.62-4.39C314.47,407.43,318.53,407.48,318.53,407.48Z" transform="translate(-263.51 -222.27)"/><path class="cls-13" d="M304.28,414.72c-1.81,2.17-.89,6.37.66,8.14s2.61,0,4.32.13c4.19.31,8.48-.46,8.48-5.9,0-4.51-3-4.11-4.32-3.91a11.46,11.46,0,0,1-5.22.15C306.25,412.76,305.42,413.34,304.28,414.72Z" transform="translate(-263.51 -222.27)"/><path class="cls-35" d="M314.23,413.85c-1.06,1.12-1.32,3.34-1.37,4.72a32.85,32.85,0,0,1-4.85,0,8.3,8.3,0,0,1,1.06-3.91C310.57,414.41,314.23,413.85,314.23,413.85Z" transform="translate(-263.51 -222.27)"/><path class="cls-13" d="M300,424.78c-.77,2.23,1.19,5.26,2.93,6.18s2-.77,3.42-1.18c3.38-1,6.51-2.87,4.9-7.13-1.34-3.53-3.56-2.33-4.54-1.78a9.7,9.7,0,0,1-4.05,1.66C300.92,422.66,300.45,423.36,300,424.78Z" transform="translate(-263.51 -222.27)"/><path class="cls-35" d="M307.79,421.08a6.1,6.1,0,0,0-.27,3.91,17.3,17.3,0,0,1-3.72,1.2,8.61,8.61,0,0,1,.15-3.05C305,422.48,307.79,421.08,307.79,421.08Z" transform="translate(-263.51 -222.27)"/><path class="cls-35" d="M317.74,417.09a8.64,8.64,0,0,0-.15-1,6.17,6.17,0,0,0-.3-.95,3.33,3.33,0,0,0-.5-.81,2.14,2.14,0,0,0-.72-.52,3.15,3.15,0,0,0-1.76-.2c-.62.08-1.27.26-1.95.42a12.11,12.11,0,0,1-2.14.33,8.41,8.41,0,0,1-1.12,0,7.93,7.93,0,0,1-1.12-.19,4.5,4.5,0,0,0-.86-.13,1.84,1.84,0,0,0-.69.09,2.9,2.9,0,0,0-1.14,1l0,0-.15.12a10.73,10.73,0,0,0-1.89,2.73,19.87,19.87,0,0,1-1.11,1.65c-.42.57-.83,1-1.23,1.46a12.22,12.22,0,0,0-2,2.85c-.1.26-.2.51-.28.78s-.14.53-.21.82a6.36,6.36,0,0,0-.14.89c-.07.32-.05.63-.12,1a6.48,6.48,0,0,1-.23-2.8,7.28,7.28,0,0,1,.23-.92,11.49,11.49,0,0,1,1.93-3.22l1.18-1.48c.37-.5.71-1,1-1.57s.64-1.09,1-1.61a5.07,5.07,0,0,1,1.27-1.38h0a3,3,0,0,1,3.64-1.08,9,9,0,0,0,4.06.06,17.75,17.75,0,0,1,2-.3,3.48,3.48,0,0,1,2,.38,2.56,2.56,0,0,1,.75.68,3.77,3.77,0,0,1,.46.92,6.33,6.33,0,0,1,.21,1A8.6,8.6,0,0,1,317.74,417.09Z" transform="translate(-263.51 -222.27)"/><path class="cls-35" d="M317.42,406.61s-.42,0-1.14.18L315,407a9.88,9.88,0,0,1-1.75.17,7.64,7.64,0,0,1-2.14-.33,4.28,4.28,0,0,0-1.93-.23,3.8,3.8,0,0,0-1.76.9,6.51,6.51,0,0,0-.8.73,9.61,9.61,0,0,0-.68.9c-.44.66-.87,1.38-1.38,2.08a14.44,14.44,0,0,1-1.64,1.92,18.72,18.72,0,0,0-2.58,3,5.37,5.37,0,0,0-.54,1.34c-.1.42-.19.82-.25,1.17s-.08.66-.1.86a2.47,2.47,0,0,1-.05.32l-.08-.28a5,5,0,0,1-.19-.83,4.88,4.88,0,0,1,.43-3,14.11,14.11,0,0,1,2.58-3.39,18.82,18.82,0,0,0,1.57-1.83l1.46-2a7.09,7.09,0,0,1,1.76-1.74,4.43,4.43,0,0,1,2.19-.95,5.13,5.13,0,0,1,2.19.43,6.69,6.69,0,0,0,2,.44,17.72,17.72,0,0,0,3-.11A10.72,10.72,0,0,1,317.42,406.61Z" transform="translate(-263.51 -222.27)"/><path class="cls-35" d="M306.67,420.87a14.11,14.11,0,0,1-1.53,1.34,6.85,6.85,0,0,1-1.91,1,2.91,2.91,0,0,1-.53.13,3.74,3.74,0,0,0-.43.11,2.09,2.09,0,0,0-.6.3,1.07,1.07,0,0,0-.32.42,5.85,5.85,0,0,0-.28.71l-.13.24a4.66,4.66,0,0,0-.34.83c-.11.34-.25.73-.36,1.13s-.28.82-.46,1.23a2.25,2.25,0,0,1-1,1.08,19.31,19.31,0,0,0,.56-2.48,6.33,6.33,0,0,1,.78-2.41h0a2.83,2.83,0,0,1,1.13-1.56,5.12,5.12,0,0,1,1.9-.43A10.78,10.78,0,0,0,306.67,420.87Z" transform="translate(-263.51 -222.27)"/><path class="cls-14" d="M305.65,393.38l.42,1.72a7.71,7.71,0,0,1,.25,1.78,3.37,3.37,0,0,1-.63,1.93,7.52,7.52,0,0,1-1.43,1.49,8.54,8.54,0,0,1-1.53.95,5.77,5.77,0,0,1-1.68.52s0-.1.09-.22.14-.31.24-.48a2.81,2.81,0,0,1,.35-.5c.14-.15.31-.27.48-.43.33-.32.69-.69,1.1-1l.64-.52c.23-.21.42-.36.6-.54a3,3,0,0,0,.44-.54,1.87,1.87,0,0,0,.29-.64,7.18,7.18,0,0,0,.2-1.62c0-.54.07-1,.09-1.34S305.65,393.38,305.65,393.38Z" transform="translate(-263.51 -222.27)"/><path class="cls-42" d="M346.89,406.37c.83,2.93-4.08,3.94-7.18,5.91-3.33,2.11-4.19-.88-3-4a14.38,14.38,0,0,0-1.62,6.37c0,1.21-1.18,2.2-2.36,2.82a7.26,7.26,0,0,1-1.57-.23l.05.07s-4.49,12.2-8.19,25.58l1.35,1.77c.66-2.73,1.16-5.09,1.36-6.66.91-7.26,5.75-18.06,7.12-19.34,1.25-.37,4.5,1.08,4.89,5.73s-.52,5.22-2.64,8.45-4.07,5.74-3.23,9.28a7.61,7.61,0,0,0,4.09,4.93c-3.64-2.24-1.76-6.82-.67-9.45,2.77-4.27,4.59-6.05,4.66-9.45.09-4,.31-7.1,1-8.69,1.05-1.39,1.29-2.75,1.64-5.07s4.73-4.9,4.9-6.11A3.21,3.21,0,0,0,346.89,406.37Z" transform="translate(-263.51 -222.27)"/><path class="cls-31" d="M448,295.89V306a4.58,4.58,0,0,0,4.59,4.59h9.51a3.25,3.25,0,0,0,2.42-2.26c.49-1.38,1.62-3.58,3-3.58,4.39,0,5.82,5.84,9,5.84h22.16a5.45,5.45,0,0,0,5.45-5.45v-9.42a5.45,5.45,0,0,0-5.57-5.45l-46.09,1A4.58,4.58,0,0,0,448,295.89Z" transform="translate(-263.51 -222.27)"/><path class="cls-43" d="M498.61,290.31l-46.09,1a4.58,4.58,0,0,0-4.49,4.59V306a4.58,4.58,0,0,0,4.59,4.59h9.51a3.25,3.25,0,0,0,2.42-2.26c.49-1.38,1.62-3.58,3-3.58,4.39,0,5.82,5.84,9,5.84h22.16a5.45,5.45,0,0,0,5.45-5.45v-9.42A5.45,5.45,0,0,0,498.61,290.31Zm3.51,14.87a3.39,3.39,0,0,1-3.39,3.39H476.57c-.53,0-1.41-1-2.18-1.87-1.48-1.68-3.51-4-6.81-4-2.89,0-4.44,3.45-5,4.94a1.82,1.82,0,0,1-.66.9h-9.32a2.54,2.54,0,0,1-2.53-2.53V295.89a2.54,2.54,0,0,1,2.48-2.53l46.09-1a3.41,3.41,0,0,1,3.46,3.39Z" transform="translate(-263.51 -222.27)"/><path class="cls-43" d="M534.5,290.19l-35.89.12a5.45,5.45,0,0,1,5.57,5.45v9.42l29.64-10.09,4.36-2.31S536.78,290.19,534.5,290.19Z" transform="translate(-263.51 -222.27)"/><path class="cls-31" d="M502.87,292.22,536.6,291a3.49,3.49,0,0,0-2.1-.77l-35.89.12A5.43,5.43,0,0,1,502.87,292.22Z" transform="translate(-263.51 -222.27)"/><path class="cls-44" d="M449.18,292.86l6.88,17.77h6.07a3.25,3.25,0,0,0,2.42-2.26,7.62,7.62,0,0,1,1.89-3.08l-.46-2.17-2.75-12.05-10.71.23A4.57,4.57,0,0,0,449.18,292.86Z" transform="translate(-263.51 -222.27)"/><polygon class="cls-44" points="209.97 68.58 204.64 68.7 220.65 88.37 231.29 88.37 209.97 68.58 209.97 68.58"/><path class="cls-44" d="M504.18,295.76a5.45,5.45,0,0,0-5.57-5.45l-11.31.24,16.88,10.88Z" transform="translate(-263.51 -222.27)"/><g class="cls-45"><path class="cls-46" d="M584.67,564.43l-5.34,9.37-7.63-4.27,5.41-9.26s-7.43-.84-11.48,5.52,1.65,14.31,1.65,14.31l3.26,9.87-1.07,6.26,8.64,1.48,1.23-7.19,5.35-6.84,1.24.39,2.07-5.48-1.94-.86S590.51,569,584.67,564.43Z" transform="translate(-263.51 -222.27)"/><path class="cls-27" d="M585,577.58l.16-.32c0-.07,3.51-7-.22-11.19l-5,8.7Z" transform="translate(-263.51 -222.27)"/><path class="cls-27" d="M584.76,578l-5-2.82-9.44-5.27,5-8.62a11.18,11.18,0,0,0-8.82,5.05c-3.62,5.69,1.56,13.07,1.62,13.15l.09.12,3.39,10.27-.94,5.5,6.61,1.13,1.1-6.43,6-7.6,1,.31,1.38-3.66Z" transform="translate(-263.51 -222.27)"/><path class="cls-27" d="M584.76,578l.38-.75c0-.07,3.51-7-.22-11.19l-.21.38c3.43,4.19.08,10.9,0,11l-.23.45-14.24-8,5-8.62a12.75,12.75,0,0,0-4,1,12.46,12.46,0,0,1,3.65-.82l-5,8.62,14.48,8.09,1.94,1.13L585,582.71l.29.09,1.38-3.66Z" transform="translate(-263.51 -222.27)"/><polygon class="cls-27" points="320.42 360.38 314.47 367.99 313.41 374.2 313.76 374.26 314.86 367.82 320.63 360.45 320.42 360.38"/><path class="cls-36" d="M572.19,659.94l5.92-62.23-8.64-1.48-10.58,61.91A6.28,6.28,0,0,0,564,665.4l.83.15A6.31,6.31,0,0,0,572.19,659.94ZM565,663.19a3.7,3.7,0,1,1,4.27-3A3.7,3.7,0,0,1,565,663.19Z" transform="translate(-263.51 -222.27)"/><rect class="cls-47" x="576.09" y="578.63" width="2.58" height="8.74" transform="translate(-476.74 580.28) rotate(-60.8)"/><path class="cls-48" d="M580.06,586.57h0a.4.4,0,0,1-.27-.48l.78-2.8A.37.37,0,0,1,581,583a.38.38,0,0,1,.27.47l-.77,2.81A.4.4,0,0,1,580.06,586.57Z" transform="translate(-263.51 -222.27)"/><path class="cls-48" d="M579.14,586.06h0a.39.39,0,0,1-.27-.48l.77-2.81a.38.38,0,0,1,.48-.26.39.39,0,0,1,.27.47l-.78,2.81A.39.39,0,0,1,579.14,586.06Z" transform="translate(-263.51 -222.27)"/><path class="cls-48" d="M578.23,585.54h0a.38.38,0,0,1-.27-.47l.77-2.81a.39.39,0,0,1,.48-.27.39.39,0,0,1,.27.48l-.77,2.8A.38.38,0,0,1,578.23,585.54Z" transform="translate(-263.51 -222.27)"/><path class="cls-48" d="M577.31,585h0a.39.39,0,0,1-.27-.47l.78-2.81a.38.38,0,0,1,.47-.27.39.39,0,0,1,.27.48l-.77,2.8A.38.38,0,0,1,577.31,585Z" transform="translate(-263.51 -222.27)"/><path class="cls-48" d="M576.4,584.52h0a.38.38,0,0,1-.27-.47l.77-2.81a.38.38,0,0,1,.48-.27.4.4,0,0,1,.27.47l-.78,2.81A.39.39,0,0,1,576.4,584.52Z" transform="translate(-263.51 -222.27)"/><path class="cls-48" d="M575.48,584h0a.4.4,0,0,1-.27-.48l.78-2.8a.38.38,0,0,1,.74.2l-.77,2.81A.4.4,0,0,1,575.48,584Z" transform="translate(-263.51 -222.27)"/><path class="cls-48" d="M574.56,583.49h0a.39.39,0,0,1-.27-.48l.77-2.81a.38.38,0,1,1,.74.21l-.77,2.81A.38.38,0,0,1,574.56,583.49Z" transform="translate(-263.51 -222.27)"/><path class="cls-48" d="M573.65,583h0a.38.38,0,0,1-.27-.47l.77-2.81a.39.39,0,0,1,.75.21l-.78,2.8A.37.37,0,0,1,573.65,583Z" transform="translate(-263.51 -222.27)"/><path class="cls-27" d="M571.11,658.84l6.42-60.71-7.25-1.24L559.94,657.4c-.58,3.37,1.28,6.51,4.16,7l.69.12C567.82,665,570.72,662.42,571.11,658.84ZM565,663.32a4.06,4.06,0,1,1,4.55-3.34A4,4,0,0,1,565,663.32Z" transform="translate(-263.51 -222.27)"/><g class="cls-49"><path class="cls-9" d="M570.65,618.3a19.14,19.14,0,0,1,5,5.64l.74-7.82C572.26,614.19,566.4,615.3,570.65,618.3Z" transform="translate(-263.51 -222.27)"/><path class="cls-9" d="M573.82,642.78l1.15-12c-2.18-5.82-10.1-7.6-10.1-7.6l-1.79,10.45A13.66,13.66,0,0,1,573.82,642.78Z" transform="translate(-263.51 -222.27)"/></g><path class="cls-27" d="M561.48,658.93a4,4,0,0,0,3.18,4.66,3.88,3.88,0,0,0,3.05-.8,3.84,3.84,0,0,1-2.67.53,4,4,0,0,1-3.18-4.66,4.08,4.08,0,0,1,1.49-2.53A4.06,4.06,0,0,0,561.48,658.93Z" transform="translate(-263.51 -222.27)"/><path class="cls-27" d="M571.11,658.84l6.42-60.71-7.25-1.24-.06.33,6.93,1.18-6.43,60.71a6.76,6.76,0,0,1-2.49,4.65A6.7,6.7,0,0,0,571.11,658.84Z" transform="translate(-263.51 -222.27)"/><path class="cls-36" d="M559.65,613.33l-.49-3-5.48.9-5.47.91.49,3,1.13.81c1.89,1.74,4.44,26,4.5,29.07s1.46,5.44,5.7,4.74,4.8-3.37,3.88-6.32-6.3-26.72-5.07-29Z" transform="translate(-263.51 -222.27)"/><path class="cls-27" d="M557.34,613.67l-.48-2.93-3.18.52-3.17.53.48,2.92.72.87c1.23,1.82,4.31,25.59,4.55,28.6s1.21,5.4,3.67,5,2.62-3,1.88-5.9-5.45-26.44-4.87-28.56Z" transform="translate(-263.51 -222.27)"/><path class="cls-27" d="M556.05,613.88l-.48-2.93-1.89.31-1.88.31.48,2.93.5.9c.86,1.88,4.27,25.6,4.61,28.6s1.08,5.41,2.54,5.17,1.39-2.77.75-5.72-5-26.5-4.81-28.56Z" transform="translate(-263.51 -222.27)"/><path class="cls-40" d="M549.7,609.25h7.64a1.73,1.73,0,0,1,1.73,1.73v.3a0,0,0,0,1,0,0H548a0,0,0,0,1,0,0V611a1.73,1.73,0,0,1,1.73-1.73Z" transform="translate(-355.38 -124.13) rotate(-9.36)"/><path class="cls-27" d="M550.87,609.25h5.25a1.32,1.32,0,0,1,1.32,1.32v.34a0,0,0,0,1,0,0h-7.89a0,0,0,0,1,0,0v-.34A1.32,1.32,0,0,1,550.87,609.25Z" transform="translate(-355.36 -124.13) rotate(-9.36)"/><path class="cls-27" d="M553.11,609.25h.77a.69.69,0,0,1,.69.69v1a0,0,0,0,1,0,0h-2.15a0,0,0,0,1,0,0v-1A.69.69,0,0,1,553.11,609.25Z" transform="translate(-355.29 -124.23) rotate(-9.35)"/><polygon class="cls-46" points="284.97 345.15 281.03 345.8 281.83 353.58 282.77 354.94 283.45 354.83 288.78 387.17 290.9 386.82 285.57 354.48 286.25 354.37 286.71 352.78 284.97 345.15"/><polygon class="cls-27" points="283.5 345.39 282.5 345.56 282.69 353.44 284.07 354.73 284.24 354.7 289.57 387.04 290.11 386.95 284.78 354.61 284.95 354.58 285.85 352.92 283.5 345.39"/><path class="cls-27" d="M552.32,626.79c.36,2.45.7,5.06,1,7.52,7.6-1.31,10.08,7.17,10.11,7.3h0c-.74-3-2-8.54-3-13.89C558.24,625.38,552.32,626.79,552.32,626.79Z" transform="translate(-263.51 -222.27)"/></g></g></svg>