<svg xmlns="http://www.w3.org/2000/svg" xmlns:xlink="http://www.w3.org/1999/xlink" width="177.236" height="127.328" viewBox="0 0 177.236 127.328">
  <defs>
    <clipPath id="clip">
      <use xlink:href="#fill"/>
    </clipPath>
  </defs>
  <g id="Bottom-part" transform="translate(-190.736 -245.314)">
    <g id="Rectangle_11" data-name="Rectangle 11" transform="matrix(0.105, 0.995, -0.995, 0.105, 309.27, 272.177)" fill="#fff" stroke="#707070" stroke-width="1">
      <rect id="fill" width="0.999" height="12" stroke="none"/>
      <path d="M0,0.5h0.998997688293457M0.5,0v12.000105857849121M0.998997688293457,11.500105857849121h-0.998997688293457M0.49899768829345703,12.000105857849121v-12.000105857849121" fill="none" clip-path="url(#clip)"/>
    </g>
    <g id="Path_4" data-name="Path 4" transform="translate(330.263 245.327) rotate(17)" fill="#cfcfcf">
      <path d="M 9.502773284912109 74.78722381591797 L 0.4994654655456543 74.77745819091797 L 0.4191963076591492 0.511390745639801 L 9.422504425048828 0.5211560726165771 L 9.502773284912109 74.78722381591797 Z" stroke="none"/>
      <path d="M 9.002235412597656 74.28667449951172 L 8.923051834106445 1.020614385604858 L 0.9197344779968262 1.011938095092773 L 0.9989174008369446 74.27799987792969 L 9.002235412597656 74.28667449951172 M 10.00331783294678 75.28776550292969 L -4.182010343356524e-06 75.27691650390625 L -0.08134862780570984 0.01085169520229101 L 9.92197322845459 0.02169613912701607 L 10.00331783294678 75.28776550292969 Z" stroke="none" fill="#707070"/>
    </g>
    <g id="Path_5" data-name="Path 5" transform="matrix(0.695, 0.719, -0.719, 0.695, 284.669, 258.239)" fill="#cfcfcf">
      <path d="M 53.60741806030273 2.713985919952393 L 0.4990358054637909 2.611250400543213 L 0.4951588809490204 0.60564786195755 L 53.60354232788086 0.7083833813667297 L 53.60741806030273 2.713985919952393 Z" stroke="none"/>
      <path d="M 53.10644912719727 2.213014841079712 L 53.1045036315918 1.207419872283936 L 0.9961291551589966 1.106618762016296 L 0.9980729818344116 2.112213850021362 L 53.10644912719727 2.213014841079712 M 54.1083869934082 3.214956760406494 L -1.395263666381652e-06 3.110286951065063 L -0.00581139512360096 0.1046768575906754 L 54.10257720947266 0.2093468606472015 L 54.1083869934082 3.214956760406494 Z" stroke="none" fill="#707070"/>
    </g>
    <g id="Path_6" data-name="Path 6" transform="matrix(0.695, 0.719, -0.719, 0.695, 287.669, 248.2)" fill="#cfcfcf">
      <path d="M 53.60741806030273 2.713985919952393 L 0.4990358054637909 2.611250400543213 L 0.4951588809490204 0.60564786195755 L 53.60354232788086 0.7083833813667297 L 53.60741806030273 2.713985919952393 Z" stroke="none"/>
      <path d="M 53.10644912719727 2.213014841079712 L 53.1045036315918 1.207419872283936 L 0.9961291551589966 1.106618762016296 L 0.9980729818344116 2.112213850021362 L 53.10644912719727 2.213014841079712 M 54.1083869934082 3.214956760406494 L -1.395263666381652e-06 3.110286951065063 L -0.00581139512360096 0.1046768575906754 L 54.10257720947266 0.2093468606472015 L 54.1083869934082 3.214956760406494 Z" stroke="none" fill="#707070"/>
    </g>
    <g id="Path_7" data-name="Path 7" transform="translate(284.263 245.327) rotate(17)" fill="#cfcfcf">
      <path d="M 9.502773284912109 74.78722381591797 L 0.4994654655456543 74.77745819091797 L 0.4191963076591492 0.511390745639801 L 9.422504425048828 0.5211560726165771 L 9.502773284912109 74.78722381591797 Z" stroke="none"/>
      <path d="M 9.002235412597656 74.28667449951172 L 8.923051834106445 1.020614385604858 L 0.9197344779968262 1.011938095092773 L 0.9989174008369446 74.27799987792969 L 9.002235412597656 74.28667449951172 M 10.00331783294678 75.28776550292969 L -4.182010343356524e-06 75.27691650390625 L -0.08134862780570984 0.01085169520229101 L 9.92197322845459 0.02169613912701607 L 10.00331783294678 75.28776550292969 Z" stroke="none" fill="#707070"/>
    </g>
    <path id="Subtraction_5" data-name="Subtraction 5" d="M30.347,100.459h0l-.178-.087L12.4,91.671,0,53.358,163.581,0l12.488,38.581-8.282,17.047-137.44,44.83Z" transform="translate(191.366 271.483)" fill="#ff6565" stroke="#707070" stroke-width="1"/>
    <g id="Ellipse_1" data-name="Ellipse 1" transform="translate(266 316)" fill="#cfcfcf" stroke="#707070" stroke-width="1">
      <circle cx="2.5" cy="2.5" r="2.5" stroke="none"/>
      <circle cx="2.5" cy="2.5" r="2" fill="none"/>
    </g>
    <g id="Ellipse_2" data-name="Ellipse 2" transform="translate(317 299)" fill="#cfcfcf" stroke="#707070" stroke-width="1">
      <circle cx="2.5" cy="2.5" r="2.5" stroke="none"/>
      <circle cx="2.5" cy="2.5" r="2" fill="none"/>
    </g>
    <g id="Path_11" data-name="Path 11" transform="matrix(0.951, -0.309, 0.309, 0.951, 230.332, 356.917)" fill="#cfcfcf">
      <path d="M 0.5005732774734497 15.68896102905273 L 0.5176830291748047 0.6328250169754028 L 116.5610046386719 0.5005647540092468 L 116.5439071655273 15.55670070648193 L 0.5005732774734497 15.68896102905273 Z" stroke="none"/>
      <path d="M 1.001142740249634 15.18838977813721 L 116.0444717407227 15.05726909637451 L 116.060432434082 1.001135945320129 L 1.017116189002991 1.132256388664246 L 1.001142740249634 15.18838977813721 M 3.806246240856126e-06 16.18953132629395 L 0.01824996061623096 0.1333935707807541 L 117.0615768432617 -6.428645065170713e-06 L 117.043342590332 16.05613136291504 L 3.806246240856126e-06 16.18953132629395 Z" stroke="none" fill="#707070"/>
    </g>
  </g>
</svg>
