<svg xmlns="http://www.w3.org/2000/svg" width="141" height="587.629" viewBox="0 0 141 587.629">
  <g id="Center-part" transform="translate(-158 -264.083)">
    <path id="Subtraction_8" data-name="Subtraction 8" d="M0,586.458H0V0L132.614,43.088l.381.124.009.059,5,1.6V541.46l-6.04,1.955-.034.177L0,586.458Z" transform="translate(158.499 264.771)" fill="#ff6565" stroke="#707070" stroke-width="1"/>
    <path id="Path_12" data-name="Path 12" d="M296.594,374.637l-26.346,15.078.331,311.01,26.014,14.913Z" fill="#848484" stroke="#707070" stroke-width="1"/>
    <g id="Rectangle_13" data-name="Rectangle 13" transform="translate(273 390)" fill="#cfcfcf" stroke="#707070" stroke-linecap="round" stroke-linejoin="bevel" stroke-width="1">
      <path d="M4,0H26a0,0,0,0,1,0,0V8a0,0,0,0,1,0,0H4A4,4,0,0,1,0,4V4A4,4,0,0,1,4,0Z" stroke="none"/>
      <path d="M4,.5H25.41a.09.09,0,0,1,.09.09V7.41a.09.09,0,0,1-.09.09H4A3.5,3.5,0,0,1,.5,4V4A3.5,3.5,0,0,1,4,.5Z" fill="none"/>
    </g>
    <g id="Rectangle_22" data-name="Rectangle 22" transform="translate(273 470)" fill="#cfcfcf" stroke="#707070" stroke-linecap="round" stroke-linejoin="bevel" stroke-width="1">
      <path d="M4,0H26a0,0,0,0,1,0,0V8a0,0,0,0,1,0,0H4A4,4,0,0,1,0,4V4A4,4,0,0,1,4,0Z" stroke="none"/>
      <path d="M4,.5H25.41a.09.09,0,0,1,.09.09V7.41a.09.09,0,0,1-.09.09H4A3.5,3.5,0,0,1,.5,4V4A3.5,3.5,0,0,1,4,.5Z" fill="none"/>
    </g>
    <g id="Rectangle_30" data-name="Rectangle 30" transform="translate(273 550)" fill="#cfcfcf" stroke="#707070" stroke-linecap="round" stroke-linejoin="bevel" stroke-width="1">
      <path d="M4,0H26a0,0,0,0,1,0,0V8a0,0,0,0,1,0,0H4A4,4,0,0,1,0,4V4A4,4,0,0,1,4,0Z" stroke="none"/>
      <path d="M4,.5H25.41a.09.09,0,0,1,.09.09V7.41a.09.09,0,0,1-.09.09H4A3.5,3.5,0,0,1,.5,4V4A3.5,3.5,0,0,1,4,.5Z" fill="none"/>
    </g>
    <g id="Rectangle_38" data-name="Rectangle 38" transform="translate(273 630)" fill="#cfcfcf" stroke="#707070" stroke-linecap="round" stroke-linejoin="bevel" stroke-width="1">
      <path d="M4,0H26a0,0,0,0,1,0,0V8a0,0,0,0,1,0,0H4A4,4,0,0,1,0,4V4A4,4,0,0,1,4,0Z" stroke="none"/>
      <path d="M4,.5H25.41a.09.09,0,0,1,.09.09V7.41a.09.09,0,0,1-.09.09H4A3.5,3.5,0,0,1,.5,4V4A3.5,3.5,0,0,1,4,.5Z" fill="none"/>
    </g>
    <g id="Rectangle_18" data-name="Rectangle 18" transform="translate(273 430)" fill="#cfcfcf" stroke="#707070" stroke-linecap="round" stroke-linejoin="bevel" stroke-width="1">
      <path d="M4,0H26a0,0,0,0,1,0,0V8a0,0,0,0,1,0,0H4A4,4,0,0,1,0,4V4A4,4,0,0,1,4,0Z" stroke="none"/>
      <path d="M4,.5H25.41a.09.09,0,0,1,.09.09V7.41a.09.09,0,0,1-.09.09H4A3.5,3.5,0,0,1,.5,4V4A3.5,3.5,0,0,1,4,.5Z" fill="none"/>
    </g>
    <g id="Rectangle_26" data-name="Rectangle 26" transform="translate(273 510)" fill="#cfcfcf" stroke="#707070" stroke-linecap="round" stroke-linejoin="bevel" stroke-width="1">
      <path d="M4,0H26a0,0,0,0,1,0,0V8a0,0,0,0,1,0,0H4A4,4,0,0,1,0,4V4A4,4,0,0,1,4,0Z" stroke="none"/>
      <path d="M4,.5H25.41a.09.09,0,0,1,.09.09V7.41a.09.09,0,0,1-.09.09H4A3.5,3.5,0,0,1,.5,4V4A3.5,3.5,0,0,1,4,.5Z" fill="none"/>
    </g>
    <g id="Rectangle_34" data-name="Rectangle 34" transform="translate(273 590)" fill="#cfcfcf" stroke="#707070" stroke-linecap="round" stroke-linejoin="bevel" stroke-width="1">
      <path d="M4,0H26a0,0,0,0,1,0,0V8a0,0,0,0,1,0,0H4A4,4,0,0,1,0,4V4A4,4,0,0,1,4,0Z" stroke="none"/>
      <path d="M4,.5H25.41a.09.09,0,0,1,.09.09V7.41a.09.09,0,0,1-.09.09H4A3.5,3.5,0,0,1,.5,4V4A3.5,3.5,0,0,1,4,.5Z" fill="none"/>
    </g>
    <g id="Rectangle_42" data-name="Rectangle 42" transform="translate(273 670)" fill="#cfcfcf" stroke="#707070" stroke-linecap="round" stroke-linejoin="bevel" stroke-width="1">
      <path d="M4,0H26a0,0,0,0,1,0,0V8a0,0,0,0,1,0,0H4A4,4,0,0,1,0,4V4A4,4,0,0,1,4,0Z" stroke="none"/>
      <path d="M4,.5H25.41a.09.09,0,0,1,.09.09V7.41a.09.09,0,0,1-.09.09H4A3.5,3.5,0,0,1,.5,4V4A3.5,3.5,0,0,1,4,.5Z" fill="none"/>
    </g>
    <g id="Rectangle_16" data-name="Rectangle 16" transform="translate(273 410)" fill="#cfcfcf" stroke="#707070" stroke-linecap="round" stroke-linejoin="bevel" stroke-width="1">
      <path d="M4,0H26a0,0,0,0,1,0,0V8a0,0,0,0,1,0,0H4A4,4,0,0,1,0,4V4A4,4,0,0,1,4,0Z" stroke="none"/>
      <path d="M4,.5H25.41a.09.09,0,0,1,.09.09V7.41a.09.09,0,0,1-.09.09H4A3.5,3.5,0,0,1,.5,4V4A3.5,3.5,0,0,1,4,.5Z" fill="none"/>
    </g>
    <g id="Rectangle_24" data-name="Rectangle 24" transform="translate(273 490)" fill="#cfcfcf" stroke="#707070" stroke-linecap="round" stroke-linejoin="bevel" stroke-width="1">
      <path d="M4,0H26a0,0,0,0,1,0,0V8a0,0,0,0,1,0,0H4A4,4,0,0,1,0,4V4A4,4,0,0,1,4,0Z" stroke="none"/>
      <path d="M4,.5H25.41a.09.09,0,0,1,.09.09V7.41a.09.09,0,0,1-.09.09H4A3.5,3.5,0,0,1,.5,4V4A3.5,3.5,0,0,1,4,.5Z" fill="none"/>
    </g>
    <g id="Rectangle_32" data-name="Rectangle 32" transform="translate(273 570)" fill="#cfcfcf" stroke="#707070" stroke-linecap="round" stroke-linejoin="bevel" stroke-width="1">
      <path d="M4,0H26a0,0,0,0,1,0,0V8a0,0,0,0,1,0,0H4A4,4,0,0,1,0,4V4A4,4,0,0,1,4,0Z" stroke="none"/>
      <path d="M4,.5H25.41a.09.09,0,0,1,.09.09V7.41a.09.09,0,0,1-.09.09H4A3.5,3.5,0,0,1,.5,4V4A3.5,3.5,0,0,1,4,.5Z" fill="none"/>
    </g>
    <g id="Rectangle_40" data-name="Rectangle 40" transform="translate(273 650)" fill="#cfcfcf" stroke="#707070" stroke-linecap="round" stroke-linejoin="bevel" stroke-width="1">
      <path d="M4,0H26a0,0,0,0,1,0,0V8a0,0,0,0,1,0,0H4A4,4,0,0,1,0,4V4A4,4,0,0,1,4,0Z" stroke="none"/>
      <path d="M4,.5H25.41a.09.09,0,0,1,.09.09V7.41a.09.09,0,0,1-.09.09H4A3.5,3.5,0,0,1,.5,4V4A3.5,3.5,0,0,1,4,.5Z" fill="none"/>
    </g>
    <g id="Rectangle_20" data-name="Rectangle 20" transform="translate(273 450)" fill="#cfcfcf" stroke="#707070" stroke-linecap="round" stroke-linejoin="bevel" stroke-width="1">
      <path d="M4,0H26a0,0,0,0,1,0,0V8a0,0,0,0,1,0,0H4A4,4,0,0,1,0,4V4A4,4,0,0,1,4,0Z" stroke="none"/>
      <path d="M4,.5H25.41a.09.09,0,0,1,.09.09V7.41a.09.09,0,0,1-.09.09H4A3.5,3.5,0,0,1,.5,4V4A3.5,3.5,0,0,1,4,.5Z" fill="none"/>
    </g>
    <g id="Rectangle_28" data-name="Rectangle 28" transform="translate(273 530)" fill="#cfcfcf" stroke="#707070" stroke-linecap="round" stroke-linejoin="bevel" stroke-width="1">
      <path d="M4,0H26a0,0,0,0,1,0,0V8a0,0,0,0,1,0,0H4A4,4,0,0,1,0,4V4A4,4,0,0,1,4,0Z" stroke="none"/>
      <path d="M4,.5H25.41a.09.09,0,0,1,.09.09V7.41a.09.09,0,0,1-.09.09H4A3.5,3.5,0,0,1,.5,4V4A3.5,3.5,0,0,1,4,.5Z" fill="none"/>
    </g>
    <g id="Rectangle_36" data-name="Rectangle 36" transform="translate(273 610)" fill="#cfcfcf" stroke="#707070" stroke-linecap="round" stroke-linejoin="bevel" stroke-width="1">
      <path d="M4,0H26a0,0,0,0,1,0,0V8a0,0,0,0,1,0,0H4A4,4,0,0,1,0,4V4A4,4,0,0,1,4,0Z" stroke="none"/>
      <path d="M4,.5H25.41a.09.09,0,0,1,.09.09V7.41a.09.09,0,0,1-.09.09H4A3.5,3.5,0,0,1,.5,4V4A3.5,3.5,0,0,1,4,.5Z" fill="none"/>
    </g>
    <g id="Rectangle_44" data-name="Rectangle 44" transform="translate(273 690)" fill="#cfcfcf" stroke="#707070" stroke-linecap="round" stroke-linejoin="bevel" stroke-width="1">
      <path d="M4,0H26a0,0,0,0,1,0,0V8a0,0,0,0,1,0,0H4A4,4,0,0,1,0,4V4A4,4,0,0,1,4,0Z" stroke="none"/>
      <path d="M4,.5H25.41a.09.09,0,0,1,.09.09V7.41a.09.09,0,0,1-.09.09H4A3.5,3.5,0,0,1,.5,4V4A3.5,3.5,0,0,1,4,.5Z" fill="none"/>
    </g>
    <g id="Rectangle_15" data-name="Rectangle 15" transform="translate(273 400)" fill="#cfcfcf" stroke="#707070" stroke-linecap="round" stroke-linejoin="bevel" stroke-width="1">
      <path d="M4,0H26a0,0,0,0,1,0,0V8a0,0,0,0,1,0,0H4A4,4,0,0,1,0,4V4A4,4,0,0,1,4,0Z" stroke="none"/>
      <path d="M4,.5H25.41a.09.09,0,0,1,.09.09V7.41a.09.09,0,0,1-.09.09H4A3.5,3.5,0,0,1,.5,4V4A3.5,3.5,0,0,1,4,.5Z" fill="none"/>
    </g>
    <g id="Rectangle_23" data-name="Rectangle 23" transform="translate(273 480)" fill="#cfcfcf" stroke="#707070" stroke-linecap="round" stroke-linejoin="bevel" stroke-width="1">
      <path d="M4,0H26a0,0,0,0,1,0,0V8a0,0,0,0,1,0,0H4A4,4,0,0,1,0,4V4A4,4,0,0,1,4,0Z" stroke="none"/>
      <path d="M4,.5H25.41a.09.09,0,0,1,.09.09V7.41a.09.09,0,0,1-.09.09H4A3.5,3.5,0,0,1,.5,4V4A3.5,3.5,0,0,1,4,.5Z" fill="none"/>
    </g>
    <g id="Rectangle_31" data-name="Rectangle 31" transform="translate(273 560)" fill="#cfcfcf" stroke="#707070" stroke-linecap="round" stroke-linejoin="bevel" stroke-width="1">
      <path d="M4,0H26a0,0,0,0,1,0,0V8a0,0,0,0,1,0,0H4A4,4,0,0,1,0,4V4A4,4,0,0,1,4,0Z" stroke="none"/>
      <path d="M4,.5H25.41a.09.09,0,0,1,.09.09V7.41a.09.09,0,0,1-.09.09H4A3.5,3.5,0,0,1,.5,4V4A3.5,3.5,0,0,1,4,.5Z" fill="none"/>
    </g>
    <g id="Rectangle_39" data-name="Rectangle 39" transform="translate(273 640)" fill="#cfcfcf" stroke="#707070" stroke-linecap="round" stroke-linejoin="bevel" stroke-width="1">
      <path d="M4,0H26a0,0,0,0,1,0,0V8a0,0,0,0,1,0,0H4A4,4,0,0,1,0,4V4A4,4,0,0,1,4,0Z" stroke="none"/>
      <path d="M4,.5H25.41a.09.09,0,0,1,.09.09V7.41a.09.09,0,0,1-.09.09H4A3.5,3.5,0,0,1,.5,4V4A3.5,3.5,0,0,1,4,.5Z" fill="none"/>
    </g>
    <g id="Rectangle_19" data-name="Rectangle 19" transform="translate(273 440)" fill="#cfcfcf" stroke="#707070" stroke-linecap="round" stroke-linejoin="bevel" stroke-width="1">
      <path d="M4,0H26a0,0,0,0,1,0,0V8a0,0,0,0,1,0,0H4A4,4,0,0,1,0,4V4A4,4,0,0,1,4,0Z" stroke="none"/>
      <path d="M4,.5H25.41a.09.09,0,0,1,.09.09V7.41a.09.09,0,0,1-.09.09H4A3.5,3.5,0,0,1,.5,4V4A3.5,3.5,0,0,1,4,.5Z" fill="none"/>
    </g>
    <g id="Rectangle_27" data-name="Rectangle 27" transform="translate(273 520)" fill="#cfcfcf" stroke="#707070" stroke-linecap="round" stroke-linejoin="bevel" stroke-width="1">
      <path d="M4,0H26a0,0,0,0,1,0,0V8a0,0,0,0,1,0,0H4A4,4,0,0,1,0,4V4A4,4,0,0,1,4,0Z" stroke="none"/>
      <path d="M4,.5H25.41a.09.09,0,0,1,.09.09V7.41a.09.09,0,0,1-.09.09H4A3.5,3.5,0,0,1,.5,4V4A3.5,3.5,0,0,1,4,.5Z" fill="none"/>
    </g>
    <g id="Rectangle_35" data-name="Rectangle 35" transform="translate(273 600)" fill="#cfcfcf" stroke="#707070" stroke-linecap="round" stroke-linejoin="bevel" stroke-width="1">
      <path d="M4,0H26a0,0,0,0,1,0,0V8a0,0,0,0,1,0,0H4A4,4,0,0,1,0,4V4A4,4,0,0,1,4,0Z" stroke="none"/>
      <path d="M4,.5H25.41a.09.09,0,0,1,.09.09V7.41a.09.09,0,0,1-.09.09H4A3.5,3.5,0,0,1,.5,4V4A3.5,3.5,0,0,1,4,.5Z" fill="none"/>
    </g>
    <g id="Rectangle_43" data-name="Rectangle 43" transform="translate(273 680)" fill="#cfcfcf" stroke="#707070" stroke-linecap="round" stroke-linejoin="bevel" stroke-width="1">
      <path d="M4,0H26a0,0,0,0,1,0,0V8a0,0,0,0,1,0,0H4A4,4,0,0,1,0,4V4A4,4,0,0,1,4,0Z" stroke="none"/>
      <path d="M4,.5H25.41a.09.09,0,0,1,.09.09V7.41a.09.09,0,0,1-.09.09H4A3.5,3.5,0,0,1,.5,4V4A3.5,3.5,0,0,1,4,.5Z" fill="none"/>
    </g>
    <g id="Rectangle_17" data-name="Rectangle 17" transform="translate(273 420)" fill="#cfcfcf" stroke="#707070" stroke-linecap="round" stroke-linejoin="bevel" stroke-width="1">
      <path d="M4,0H26a0,0,0,0,1,0,0V8a0,0,0,0,1,0,0H4A4,4,0,0,1,0,4V4A4,4,0,0,1,4,0Z" stroke="none"/>
      <path d="M4,.5H25.41a.09.09,0,0,1,.09.09V7.41a.09.09,0,0,1-.09.09H4A3.5,3.5,0,0,1,.5,4V4A3.5,3.5,0,0,1,4,.5Z" fill="none"/>
    </g>
    <g id="Rectangle_25" data-name="Rectangle 25" transform="translate(273 500)" fill="#cfcfcf" stroke="#707070" stroke-linecap="round" stroke-linejoin="bevel" stroke-width="1">
      <path d="M4,0H26a0,0,0,0,1,0,0V8a0,0,0,0,1,0,0H4A4,4,0,0,1,0,4V4A4,4,0,0,1,4,0Z" stroke="none"/>
      <path d="M4,.5H25.41a.09.09,0,0,1,.09.09V7.41a.09.09,0,0,1-.09.09H4A3.5,3.5,0,0,1,.5,4V4A3.5,3.5,0,0,1,4,.5Z" fill="none"/>
    </g>
    <g id="Rectangle_33" data-name="Rectangle 33" transform="translate(273 580)" fill="#cfcfcf" stroke="#707070" stroke-linecap="round" stroke-linejoin="bevel" stroke-width="1">
      <path d="M4,0H26a0,0,0,0,1,0,0V8a0,0,0,0,1,0,0H4A4,4,0,0,1,0,4V4A4,4,0,0,1,4,0Z" stroke="none"/>
      <path d="M4,.5H25.41a.09.09,0,0,1,.09.09V7.41a.09.09,0,0,1-.09.09H4A3.5,3.5,0,0,1,.5,4V4A3.5,3.5,0,0,1,4,.5Z" fill="none"/>
    </g>
    <g id="Rectangle_41" data-name="Rectangle 41" transform="translate(273 660)" fill="#cfcfcf" stroke="#707070" stroke-linecap="round" stroke-linejoin="bevel" stroke-width="1">
      <path d="M4,0H26a0,0,0,0,1,0,0V8a0,0,0,0,1,0,0H4A4,4,0,0,1,0,4V4A4,4,0,0,1,4,0Z" stroke="none"/>
      <path d="M4,.5H25.41a.09.09,0,0,1,.09.09V7.41a.09.09,0,0,1-.09.09H4A3.5,3.5,0,0,1,.5,4V4A3.5,3.5,0,0,1,4,.5Z" fill="none"/>
    </g>
    <g id="Rectangle_21" data-name="Rectangle 21" transform="translate(273 460)" fill="#cfcfcf" stroke="#707070" stroke-linecap="round" stroke-linejoin="bevel" stroke-width="1">
      <path d="M4,0H26a0,0,0,0,1,0,0V8a0,0,0,0,1,0,0H4A4,4,0,0,1,0,4V4A4,4,0,0,1,4,0Z" stroke="none"/>
      <path d="M4,.5H25.41a.09.09,0,0,1,.09.09V7.41a.09.09,0,0,1-.09.09H4A3.5,3.5,0,0,1,.5,4V4A3.5,3.5,0,0,1,4,.5Z" fill="none"/>
    </g>
    <g id="Rectangle_29" data-name="Rectangle 29" transform="translate(273 540)" fill="#cfcfcf" stroke="#707070" stroke-linecap="round" stroke-linejoin="bevel" stroke-width="1">
      <path d="M4,0H26a0,0,0,0,1,0,0V8a0,0,0,0,1,0,0H4A4,4,0,0,1,0,4V4A4,4,0,0,1,4,0Z" stroke="none"/>
      <path d="M4,.5H25.41a.09.09,0,0,1,.09.09V7.41a.09.09,0,0,1-.09.09H4A3.5,3.5,0,0,1,.5,4V4A3.5,3.5,0,0,1,4,.5Z" fill="none"/>
    </g>
    <g id="Rectangle_37" data-name="Rectangle 37" transform="translate(273 620)" fill="#cfcfcf" stroke="#707070" stroke-linecap="round" stroke-linejoin="bevel" stroke-width="1">
      <path d="M4,0H26a0,0,0,0,1,0,0V8a0,0,0,0,1,0,0H4A4,4,0,0,1,0,4V4A4,4,0,0,1,4,0Z" stroke="none"/>
      <path d="M4,.5H25.41a.09.09,0,0,1,.09.09V7.41a.09.09,0,0,1-.09.09H4A3.5,3.5,0,0,1,.5,4V4A3.5,3.5,0,0,1,4,.5Z" fill="none"/>
    </g>
    <g id="Rectangle_45" data-name="Rectangle 45" transform="translate(283 700)" fill="#cfcfcf" stroke="#707070" stroke-linecap="round" stroke-linejoin="bevel" stroke-width="1">
      <path d="M4,0H16a0,0,0,0,1,0,0V8a0,0,0,0,1,0,0H4A4,4,0,0,1,0,4V4A4,4,0,0,1,4,0Z" stroke="none"/>
      <path d="M4,.5H15.41a.09.09,0,0,1,.09.09V7.41a.09.09,0,0,1-.09.09H4A3.5,3.5,0,0,1,.5,4V4A3.5,3.5,0,0,1,4,.5Z" fill="none"/>
    </g>
    <g id="Rectangle_14" data-name="Rectangle 14" transform="translate(286 380)" fill="#cfcfcf" stroke="#707070" stroke-linecap="round" stroke-linejoin="bevel" stroke-width="1">
      <path d="M4,0h9a0,0,0,0,1,0,0V8a0,0,0,0,1,0,0H4A4,4,0,0,1,0,4V4A4,4,0,0,1,4,0Z" stroke="none"/>
      <path d="M4,.5h8.41a.09.09,0,0,1,.09.09V7.41a.09.09,0,0,1-.09.09H4A3.5,3.5,0,0,1,.5,4V4A3.5,3.5,0,0,1,4,.5Z" fill="none"/>
    </g>
  </g>
</svg>
